<?xml version="1.0" encoding="UTF-8" standalone="no"?>
<!-- Created with Inkscape (http://www.inkscape.org/) -->

<svg
   xmlns:dc="http://purl.org/dc/elements/1.1/"
   xmlns:cc="http://creativecommons.org/ns#"
   xmlns:rdf="http://www.w3.org/1999/02/22-rdf-syntax-ns#"
   xmlns:svg="http://www.w3.org/2000/svg"
   xmlns="http://www.w3.org/2000/svg"
   xmlns:sodipodi="http://sodipodi.sourceforge.net/DTD/sodipodi-0.dtd"
   xmlns:inkscape="http://www.inkscape.org/namespaces/inkscape"
   id="svg2"
   version="1.1"
   inkscape:version="0.91 r13725"
   xml:space="preserve"
   width="1052.3625"
   height="744.09998"
   viewBox="0 0 1052.3625 744.09998"
   sodipodi:docname="narod_priem.svg"><metadata
     id="metadata8"><rdf:RDF><cc:Work
         rdf:about=""><dc:format>image/svg+xml</dc:format><dc:type
           rdf:resource="http://purl.org/dc/dcmitype/StillImage" /><dc:title></dc:title></cc:Work></rdf:RDF></metadata><defs
     id="defs6"><clipPath
       clipPathUnits="userSpaceOnUse"
       id="clipPath56"><path
         d="m 0,595.28 841.89,0 L 841.89,0 0,0 0,595.28 Z"
         id="path58"
         inkscape:connector-curvature="0" /></clipPath></defs><sodipodi:namedview
     pagecolor="#ffffff"
     bordercolor="#666666"
     borderopacity="1"
     objecttolerance="10"
     gridtolerance="10"
     guidetolerance="10"
     inkscape:pageopacity="0"
     inkscape:pageshadow="2"
     inkscape:window-width="1788"
     inkscape:window-height="1003"
     id="namedview4"
     showgrid="false"
     inkscape:zoom="2.5372935"
     inkscape:cx="320.40975"
     inkscape:cy="525.69023"
     inkscape:window-x="73"
     inkscape:window-y="127"
     inkscape:window-maximized="0"
     inkscape:current-layer="g54" /><g
     id="g10"
     inkscape:groupmode="layer"
     inkscape:label="Народная приёмная (кривые)"
     transform="matrix(1.25,0,0,-1.25,0,744.1)"><g
       id="g12"
       transform="translate(275.3123,474.4005)"
       style="fill:#bb0816;fill-opacity:1"><path
         d="m 0,0 -20.25,-9.445 0,53.39 L 0,53.39 0,0 Z"
         style="fill:#bb0816;fill-opacity:1;fill-rule:nonzero;stroke:none"
         id="path14"
         inkscape:connector-curvature="0" /></g><g
       id="g16"
       transform="translate(362.8123,486.0955)"><path
         d="M 0,0 -204.094,-75.313 -3.844,22.437 0,0 Z"
         style="fill:#bebdbd;fill-opacity:1;fill-rule:nonzero;stroke:none"
         id="path18"
         inkscape:connector-curvature="0" /></g><g
       id="g20"
       transform="translate(439.3239,359.3426)"><path
         d="m 0,0 -77.104,150.386 14.293,7.328 L 14.293,7.328 0,0 Z"
         style="fill:#bebdbd;fill-opacity:1;fill-rule:nonzero;stroke:none"
         id="path22"
         inkscape:connector-curvature="0" /></g><path
       d="m 336.528,432.773 -14.965,0 0,14.959 14.965,0 0,-14.959 z"
       style="fill:#bebdbd;fill-opacity:1;fill-rule:nonzero;stroke:none"
       id="path24"
       inkscape:connector-curvature="0" /><path
       d="m 362.644,432.773 -14.965,0 0,14.959 14.965,0 0,-14.959 z"
       style="fill:#bebdbd;fill-opacity:1;fill-rule:nonzero;stroke:none"
       id="path26"
       inkscape:connector-curvature="0" /><path
       d="m 336.527,406.649 -14.965,0 0,14.959 14.965,0 0,-14.959 z"
       style="fill:#bebdbd;fill-opacity:1;fill-rule:nonzero;stroke:none"
       id="path28"
       inkscape:connector-curvature="0" /><path
       d="m 362.644,406.649 -14.966,0 0,14.959 14.966,0 0,-14.959 z"
       style="fill:#bebdbd;fill-opacity:1;fill-rule:nonzero;stroke:none"
       id="path30"
       inkscape:connector-curvature="0" /><g
       id="g32"
       transform="translate(277.3123,476.4005)"
       style="fill:#dd0816;fill-opacity:0"><path
         d="m 0,0 -20.25,-9.445 0,53.39 L 0,53.39 0,0 Z"
         style="fill:#dd0816;fill-opacity:0;fill-rule:nonzero;stroke:none"
         id="path34"
         inkscape:connector-curvature="0" /></g><g
       id="g36"
       transform="translate(364.8123,488.0955)"
       style="fill:#dd0816;fill-opacity:1"><path
         d="M 0,0 -204.094,-75.313 -3.844,22.437 0,0 Z"
         style="fill:#dd0816;fill-opacity:1;fill-rule:nonzero;stroke:none"
         id="path38"
         inkscape:connector-curvature="0" /></g><g
       id="g40"
       transform="translate(441.3239,361.3426)"
       style="opacity:1;fill:#c92933;fill-opacity:1"><path
         d="m 0,0 -77.104,150.386 14.293,7.328 L 14.293,7.328 0,0 Z"
         style="fill:#c92933;fill-opacity:1;fill-rule:nonzero;stroke:none"
         id="path42"
         inkscape:connector-curvature="0" /></g><path
       d="m 338.103,434.348 -14.966,0 0,14.959 14.966,0 0,-14.959 z"
       style="fill:#ce2e37;fill-opacity:1;fill-rule:nonzero;stroke:none"
       id="path44"
       inkscape:connector-curvature="0" /><path
       d="m 364.22,434.348 -14.966,0 0,14.959 14.966,0 0,-14.959 z"
       style="fill:#ce2e37;fill-opacity:1;fill-rule:nonzero;stroke:none"
       id="path46"
       inkscape:connector-curvature="0" /><path
       d="m 338.102,408.224 -14.966,0 0,14.959 14.966,0 0,-14.959 z"
       style="fill:#ce2e37;fill-opacity:1;fill-rule:nonzero;stroke:none"
       id="path48"
       inkscape:connector-curvature="0" /><path
       d="m 364.219,408.224 -14.966,0 0,14.959 14.966,0 0,-14.959 z"
       style="fill:#ce2e37;fill-opacity:1;fill-rule:nonzero;stroke:none"
       id="path50"
       inkscape:connector-curvature="0" /><g
       id="g52"><g
         id="g54"
         clip-path="url(#clipPath56)"><g
           id="g60"
           transform="translate(141.6454,312.1262)"
           style="fill:#cc3038;fill-opacity:1"><path
             d="m 0,0 c 0,-0.615 -0.092,-1.275 -0.234,-1.905 -0.091,-0.42 -0.247,-0.87 -0.443,-1.245 l 2.107,0 0,4.005 L 0,0.855 0,0 Z m 3.354,2.52 0,-5.73 0.702,-0.03 -0.091,-3.945 -1.483,0 -0.064,2.37 -4.018,0 -0.078,-2.37 -1.495,0 -0.052,3.93 0.585,0.045 c 0.274,0.465 0.495,0.99 0.638,1.53 0.182,0.765 0.285,1.59 0.285,2.4 l 0,1.8 5.071,0 z"
             style="fill:#cc3038;fill-opacity:1;fill-rule:nonzero;stroke:none"
             id="path62"
             inkscape:connector-curvature="0" /></g><g
           id="g64"
           transform="translate(150.5663,311.8112)"
           style="fill:#cc3038;fill-opacity:1"><path
             d="M 0,0 C 0,0.555 -0.208,1.485 -1.118,1.485 -1.95,1.485 -2.288,0.615 -2.341,0 L 0,0 Z m -2.327,-1.56 c 0.064,-0.945 0.871,-1.395 1.794,-1.395 0.676,0 1.221,0.105 1.755,0.3 L 1.481,-4.2 c -0.649,-0.3 -1.443,-0.45 -2.3,-0.45 -2.159,0 -3.394,1.44 -3.394,3.735 0,1.86 1.001,3.915 3.212,3.915 2.054,0 2.834,-1.845 2.834,-3.66 0,-0.39 -0.039,-0.735 -0.065,-0.9 l -4.095,0 z"
             style="fill:#cc3038;fill-opacity:1;fill-rule:nonzero;stroke:none"
             id="path66"
             inkscape:connector-curvature="0" /></g><g
           id="g68"
           transform="translate(159.4872,314.6457)"
           style="fill:#cc3038;fill-opacity:1"><path
             d="m 0,0 0,-7.335 -1.989,0 0,5.595 -1.95,0 0,-5.595 -1.976,0 0,7.335 L 0,0 Z"
             style="fill:#cc3038;fill-opacity:1;fill-rule:nonzero;stroke:none"
             id="path70"
             inkscape:connector-curvature="0" /></g><g
           id="g72"
           transform="translate(162.5584,314.6457)"
           style="fill:#cc3038;fill-opacity:1"><path
             d="m 0,0 0.948,-3.6 c 0.105,-0.435 0.235,-0.975 0.313,-1.364 l 0.039,0 C 1.391,-4.575 1.495,-4.02 1.586,-3.6 L 2.366,0 4.485,0 3.003,-4.83 c -0.91,-2.909 -1.522,-4.079 -2.236,-4.815 -0.689,-0.69 -1.417,-0.929 -1.912,-1.004 l -0.416,1.935 c 0.248,0.045 0.56,0.179 0.859,0.39 0.299,0.179 0.624,0.539 0.818,0.914 0.066,0.105 0.105,0.226 0.105,0.33 0,0.076 -0.013,0.196 -0.091,0.375 L -2.197,0 0,0 Z"
             style="fill:#cc3038;fill-opacity:1;fill-rule:nonzero;stroke:none"
             id="path74"
             inkscape:connector-curvature="0" /></g><g
           id="g76"
           transform="translate(173.0643,314.6457)"
           style="fill:#cc3038;fill-opacity:1"><path
             d="m 0,0 0,-1.74 -1.846,0 0,-5.595 -1.989,0 0,5.595 -1.846,0 0,1.74 L 0,0 Z"
             style="fill:#cc3038;fill-opacity:1;fill-rule:nonzero;stroke:none"
             id="path78"
             inkscape:connector-curvature="0" /></g><g
           id="g80"
           transform="translate(177.2264,310.7761)"
           style="fill:#cc3038;fill-opacity:1"><path
             d="m 0,0 c -1.04,0.015 -1.846,-0.27 -1.846,-1.155 0,-0.585 0.338,-0.87 0.781,-0.87 0.494,0 0.896,0.375 1.026,0.84 C -0.013,-1.065 0,-0.93 0,-0.795 L 0,0 Z m 0.234,-3.465 -0.117,0.735 -0.039,0 c -0.416,-0.585 -1.065,-0.9 -1.82,-0.9 -1.286,0 -2.054,1.08 -2.054,2.25 0,1.905 1.482,2.82 3.732,2.805 l 0,0.105 c 0,0.39 -0.183,0.945 -1.158,0.945 -0.65,0 -1.339,-0.255 -1.755,-0.555 l -0.364,1.47 c 0.443,0.285 1.314,0.645 2.47,0.645 2.119,0 2.796,-1.44 2.796,-3.165 l 0,-2.55 c 0,-0.705 0.025,-1.38 0.091,-1.785 l -1.782,0 z"
             style="fill:#cc3038;fill-opacity:1;fill-rule:nonzero;stroke:none"
             id="path82"
             inkscape:connector-curvature="0" /></g><g
           id="g84"
           transform="translate(185.576,314.6457)"
           style="fill:#cc3038;fill-opacity:1"><path
             d="m 0,0 0,-1.74 -1.846,0 0,-5.595 -1.989,0 0,5.595 -1.846,0 0,1.74 L 0,0 Z"
             style="fill:#cc3038;fill-opacity:1;fill-rule:nonzero;stroke:none"
             id="path86"
             inkscape:connector-curvature="0" /></g><g
           id="g88"
           transform="translate(193.5877,314.6457)"
           style="fill:#cc3038;fill-opacity:1"><path
             d="m 0,0 0,-1.77 -2.471,0 0,-5.565 -1.975,0 0,7.335 L 0,0 Z"
             style="fill:#cc3038;fill-opacity:1;fill-rule:nonzero;stroke:none"
             id="path90"
             inkscape:connector-curvature="0" /></g><g
           id="g92"
           transform="translate(196.0594,310.9861)"
           style="fill:#cc3038;fill-opacity:1"><path
             d="m 0,0 c 0,-1.26 0.455,-2.205 1.301,-2.205 0.766,0 1.261,0.885 1.261,2.205 0,1.095 -0.365,2.205 -1.261,2.205 C 0.352,2.205 0,1.08 0,0 m 4.603,0.075 c 0,-2.685 -1.652,-3.915 -3.355,-3.915 -1.858,0 -3.289,1.41 -3.289,3.78 0,2.37 1.353,3.885 3.394,3.885 1.95,0 3.25,-1.545 3.25,-3.75"
             style="fill:#cc3038;fill-opacity:1;fill-rule:nonzero;stroke:none"
             id="path94"
             inkscape:connector-curvature="0" /></g><g
           id="g96"
           transform="translate(206.6581,307.4914)"
           style="fill:#cc3038;fill-opacity:1"><path
             d="m 0,0 c -0.352,-0.18 -1.015,-0.33 -1.769,-0.33 -2.053,0 -3.367,1.44 -3.367,3.749 0,2.146 1.275,3.9 3.641,3.9 0.519,0 1.092,-0.105 1.508,-0.284 L -0.299,5.339 c -0.234,0.121 -0.585,0.226 -1.105,0.226 -1.04,0 -1.716,-0.855 -1.703,-2.055 0,-1.35 0.78,-2.055 1.742,-2.055 0.467,0 0.832,0.09 1.131,0.225 L 0,0 Z"
             style="fill:#cc3038;fill-opacity:1;fill-rule:nonzero;stroke:none"
             id="path98"
             inkscape:connector-curvature="0" /></g><g
           id="g100"
           transform="translate(210.5086,312.1262)"
           style="fill:#cc3038;fill-opacity:1"><path
             d="m 0,0 c 0,-0.615 -0.092,-1.275 -0.234,-1.905 -0.091,-0.42 -0.247,-0.87 -0.443,-1.245 l 2.107,0 0,4.005 L 0,0.855 0,0 Z m 3.354,2.52 0,-5.73 0.702,-0.03 -0.091,-3.945 -1.483,0 -0.064,2.37 -4.018,0 -0.078,-2.37 -1.495,0 -0.052,3.93 0.585,0.045 c 0.274,0.465 0.495,0.99 0.638,1.53 0.182,0.765 0.285,1.59 0.285,2.4 l 0,1.8 5.071,0 z"
             style="fill:#cc3038;fill-opacity:1;fill-rule:nonzero;stroke:none"
             id="path102"
             inkscape:connector-curvature="0" /></g><g
           id="g104"
           transform="translate(217.0116,314.6457)"
           style="fill:#cc3038;fill-opacity:1"><path
             d="m 0,0 0.948,-3.6 c 0.105,-0.435 0.235,-0.975 0.313,-1.364 l 0.039,0 C 1.391,-4.575 1.495,-4.02 1.586,-3.6 L 2.366,0 4.485,0 3.003,-4.83 c -0.91,-2.909 -1.522,-4.079 -2.236,-4.815 -0.689,-0.69 -1.417,-0.929 -1.912,-1.004 l -0.416,1.935 c 0.247,0.045 0.56,0.179 0.859,0.39 0.299,0.179 0.624,0.539 0.818,0.914 0.066,0.105 0.105,0.226 0.105,0.33 0,0.076 -0.013,0.196 -0.091,0.375 L -2.197,0 0,0 Z"
             style="fill:#cc3038;fill-opacity:1;fill-rule:nonzero;stroke:none"
             id="path106"
             inkscape:connector-curvature="0" /></g><g
           id="g108"
           transform="translate(222.4862,314.6457)"
           style="fill:#cc3038;fill-opacity:1"><path
             d="m 0,0 2.522,0 0.69,-2.775 C 3.315,-3.21 3.497,-3.96 3.628,-4.62 l 0.039,0 c 0.116,0.511 0.324,1.306 0.507,2.01 L 4.876,0 l 2.496,0 0.39,-7.335 -1.833,0 -0.105,2.94 C 5.812,-3.765 5.772,-2.7 5.76,-1.83 l -0.039,0 C 5.474,-2.805 5.435,-3.044 5.109,-4.229 l -0.844,-2.985 -1.444,0 -0.754,2.909 C 1.898,-3.6 1.69,-2.564 1.548,-1.874 l -0.053,0 C 1.47,-2.789 1.456,-3.825 1.431,-4.439 l -0.105,-2.896 -1.767,0 L 0,0 Z"
             style="fill:#cc3038;fill-opacity:1;fill-rule:nonzero;stroke:none"
             id="path110"
             inkscape:connector-curvature="0" /></g><path
           d="m 240.132,307.311 -1.976,0 0,7.335 1.976,0 0,-7.335 z m -6.578,1.485 c 0.181,-0.015 0.364,-0.03 0.597,-0.03 0.663,0 1.34,0.3 1.34,1.155 0,0.825 -0.663,1.095 -1.248,1.095 -0.312,0 -0.508,-0.045 -0.689,-0.075 l 0,-2.145 z m 0.012,5.85 0,-2.175 c 0.261,0.045 0.599,0.09 1.028,0.09 1.404,0 2.86,-0.69 2.86,-2.565 0,-0.93 -0.352,-1.545 -0.871,-1.95 -0.819,-0.66 -1.924,-0.825 -2.873,-0.825 -0.715,0 -1.456,0.045 -2.119,0.135 l 0,7.29 1.975,0 z"
           style="fill:#cc3038;fill-opacity:1;fill-rule:nonzero;stroke:none"
           id="path112"
           inkscape:connector-curvature="0" /><g
           id="g114"
           transform="translate(249.1073,307.4914)"
           style="fill:#cc3038;fill-opacity:1"><path
             d="m 0,0 c -0.352,-0.18 -1.015,-0.33 -1.769,-0.33 -2.053,0 -3.367,1.44 -3.367,3.749 0,2.146 1.275,3.9 3.641,3.9 0.519,0 1.092,-0.105 1.508,-0.284 L -0.299,5.339 c -0.234,0.121 -0.585,0.226 -1.105,0.226 -1.04,0 -1.716,-0.855 -1.703,-2.055 0,-1.35 0.78,-2.055 1.742,-2.055 0.468,0 0.832,0.09 1.131,0.225 L 0,0 Z"
             style="fill:#cc3038;fill-opacity:1;fill-rule:nonzero;stroke:none"
             id="path116"
             inkscape:connector-curvature="0" /></g><g
           id="g118"
           transform="translate(253.9588,311.8112)"
           style="fill:#cc3038;fill-opacity:1"><path
             d="M 0,0 C 0,0.555 -0.208,1.485 -1.118,1.485 -1.95,1.485 -2.288,0.615 -2.341,0 L 0,0 Z m -2.327,-1.56 c 0.064,-0.945 0.871,-1.395 1.794,-1.395 0.676,0 1.222,0.105 1.755,0.3 L 1.482,-4.2 c -0.65,-0.3 -1.444,-0.45 -2.301,-0.45 -2.158,0 -3.394,1.44 -3.394,3.735 0,1.86 1.001,3.915 3.212,3.915 2.054,0 2.834,-1.845 2.834,-3.66 0,-0.39 -0.039,-0.735 -0.065,-0.9 l -4.095,0 z"
             style="fill:#cc3038;fill-opacity:1;fill-rule:nonzero;stroke:none"
             id="path120"
             inkscape:connector-curvature="0" /></g><g
           id="g122"
           transform="translate(258.953,310.4612)"
           style="fill:#cc3038;fill-opacity:1"><path
             d="m 0,0 c 0,-0.18 0.013,-0.345 0.038,-0.48 0.131,-0.615 0.586,-1.08 1.157,-1.08 0.859,0 1.365,0.825 1.365,2.07 0,1.17 -0.455,2.055 -1.338,2.055 C 0.663,2.565 0.169,2.085 0.038,1.41 0.013,1.29 0,1.14 0,1.005 L 0,0 Z m -1.977,1.725 c 0,0.96 -0.026,1.785 -0.051,2.459 l 1.716,0 0.09,-1.019 0.027,0 c 0.467,0.78 1.196,1.185 2.119,1.185 1.39,0 2.638,-1.395 2.638,-3.735 0,-2.67 -1.468,-3.93 -2.885,-3.93 -0.768,0 -1.366,0.36 -1.652,0.84 l -0.025,0 0,-3.645 -1.977,0 0,7.845 z"
             style="fill:#cc3038;fill-opacity:1;fill-rule:nonzero;stroke:none"
             id="path124"
             inkscape:connector-curvature="0" /></g><g
           id="g126"
           transform="translate(269.1874,314.6457)"
           style="fill:#cc3038;fill-opacity:1"><path
             d="m 0,0 0,-1.77 -2.471,0 0,-5.565 -1.975,0 0,7.335 L 0,0 Z"
             style="fill:#cc3038;fill-opacity:1;fill-rule:nonzero;stroke:none"
             id="path128"
             inkscape:connector-curvature="0" /></g><g
           id="g130"
           transform="translate(273.8309,311.8112)"
           style="fill:#cc3038;fill-opacity:1"><path
             d="M 0,0 C 0,0.555 -0.208,1.485 -1.118,1.485 -1.95,1.485 -2.288,0.615 -2.341,0 L 0,0 Z m -2.327,-1.56 c 0.064,-0.945 0.871,-1.395 1.794,-1.395 0.676,0 1.221,0.105 1.755,0.3 L 1.481,-4.2 c -0.649,-0.3 -1.442,-0.45 -2.3,-0.45 -2.159,0 -3.394,1.44 -3.394,3.735 0,1.86 1.001,3.915 3.211,3.915 2.055,0 2.835,-1.845 2.835,-3.66 0,-0.39 -0.039,-0.735 -0.065,-0.9 l -4.095,0 z"
             style="fill:#cc3038;fill-opacity:1;fill-rule:nonzero;stroke:none"
             id="path132"
             inkscape:connector-curvature="0" /></g><g
           id="g134"
           transform="translate(279.3182,317.676)"
           style="fill:#cc3038;fill-opacity:1"><path
             d="m 0,0 c 0.014,-0.66 0.234,-1.065 0.599,-1.065 0.389,0 0.597,0.42 0.636,1.065 L 2.483,0 C 2.405,-1.395 1.69,-2.115 0.572,-2.115 -0.624,-2.115 -1.195,-1.29 -1.261,0 L 0,0 Z m -0.61,-3.03 0,-2.25 c 0,-1.17 -0.053,-1.995 -0.105,-2.985 l 0.052,-0.015 c 0.3,0.84 0.469,1.41 0.728,2.1 l 1.236,3.15 2.418,0 0,-7.335 -1.872,0 0,2.235 c 0,1.14 0.051,1.62 0.117,3.18 l -0.053,0 C 1.664,-5.76 1.509,-6.24 1.248,-6.93 0.846,-7.95 0.364,-9.225 -0.077,-10.365 l -2.405,0 0,7.335 1.872,0 z"
             style="fill:#cc3038;fill-opacity:1;fill-rule:nonzero;stroke:none"
             id="path136"
             inkscape:connector-curvature="0" /></g><g
           id="g138"
           transform="translate(288.9168,310.9861)"
           style="fill:#cc3038;fill-opacity:1"><path
             d="m 0,0 c 0,-1.26 0.455,-2.205 1.301,-2.205 0.766,0 1.261,0.885 1.261,2.205 0,1.095 -0.365,2.205 -1.261,2.205 C 0.352,2.205 0,1.08 0,0 m 4.603,0.075 c 0,-2.685 -1.652,-3.915 -3.355,-3.915 -1.858,0 -3.289,1.41 -3.289,3.78 0,2.37 1.353,3.885 3.394,3.885 1.95,0 3.25,-1.545 3.25,-3.75"
             style="fill:#cc3038;fill-opacity:1;fill-rule:nonzero;stroke:none"
             id="path140"
             inkscape:connector-curvature="0" /></g><g
           id="g142"
           transform="translate(297.7079,313.071)"
           style="fill:#cc3038;fill-opacity:1"><path
             d="m 0,0 c -0.416,0 -0.728,-0.255 -0.923,-0.6 -0.221,-0.375 -0.338,-0.825 -0.338,-1.455 0,-0.96 0.351,-2.235 1.287,-2.235 0.936,0 1.261,1.095 1.261,2.13 C 1.287,-1.17 0.975,0 0,0 M 2.535,3.24 C 2.158,3.12 1.495,3.03 1.027,2.985 0.117,2.865 -0.546,2.58 -0.975,2.01 -1.352,1.545 -1.611,0.78 -1.664,0.195 l 0.065,0 c 0.39,0.81 1.158,1.38 2.093,1.38 1.716,0 2.821,-1.455 2.821,-3.645 0,-2.385 -1.378,-3.855 -3.262,-3.855 -2.224,0 -3.328,2.055 -3.328,4.845 0,1.905 0.428,3.435 1.364,4.455 0.624,0.765 1.495,1.2 2.652,1.35 C 1.34,4.8 2.197,4.905 2.64,5.04 L 2.535,3.24 Z"
             style="fill:#cc3038;fill-opacity:1;fill-rule:nonzero;stroke:none"
             id="path144"
             inkscape:connector-curvature="0" /></g><g
           id="g146"
           transform="translate(303.4959,314.6457)"
           style="fill:#cc3038;fill-opacity:1"><path
             d="m 0,0 0.948,-3.6 c 0.105,-0.435 0.235,-0.975 0.313,-1.364 l 0.039,0 C 1.391,-4.575 1.495,-4.02 1.586,-3.6 L 2.366,0 4.485,0 3.003,-4.83 c -0.91,-2.909 -1.521,-4.079 -2.236,-4.815 -0.689,-0.69 -1.417,-0.929 -1.912,-1.004 l -0.415,1.935 c 0.247,0.045 0.559,0.179 0.858,0.39 0.299,0.179 0.624,0.539 0.818,0.914 0.066,0.105 0.105,0.226 0.105,0.33 0,0.076 -0.013,0.196 -0.091,0.375 L -2.197,0 0,0 Z"
             style="fill:#cc3038;fill-opacity:1;fill-rule:nonzero;stroke:none"
             id="path148"
             inkscape:connector-curvature="0" /></g><g
           id="g150"
           transform="translate(310.4667,314.6457)"
           style="fill:#cc3038;fill-opacity:1"><path
             d="m 0,0 0.624,-1.215 c 0.183,-0.375 0.351,-0.75 0.521,-1.094 l 0.025,0 c 0.169,0.389 0.325,0.764 0.494,1.125 L 2.224,0 4.368,0 2.275,-3.495 l 2.12,-3.84 -2.237,0 -0.637,1.32 c -0.182,0.36 -0.338,0.735 -0.494,1.11 l -0.039,0 C 0.832,-5.294 0.663,-5.655 0.507,-6.015 l -0.598,-1.32 -2.171,0 L -0.104,-3.6 -2.21,0 0,0 Z"
             style="fill:#cc3038;fill-opacity:1;fill-rule:nonzero;stroke:none"
             id="path152"
             inkscape:connector-curvature="0" /></g><g
           id="g154"
           transform="translate(317.0995,310.9861)"
           style="fill:#cc3038;fill-opacity:1"><path
             d="m 0,0 c 0,-1.26 0.455,-2.205 1.301,-2.205 0.766,0 1.26,0.885 1.26,2.205 0,1.095 -0.364,2.205 -1.26,2.205 C 0.352,2.205 0,1.08 0,0 m 4.603,0.075 c 0,-2.685 -1.652,-3.915 -3.355,-3.915 -1.858,0 -3.289,1.41 -3.289,3.78 0,2.37 1.352,3.885 3.394,3.885 1.95,0 3.25,-1.545 3.25,-3.75"
             style="fill:#cc3038;fill-opacity:1;fill-rule:nonzero;stroke:none"
             id="path156"
             inkscape:connector-curvature="0" /></g><g
           id="g158"
           transform="translate(324.8641,311.781)"
           style="fill:#cc3038;fill-opacity:1"><path
             d="m 0,0 0.507,0 c 0.793,0 1.3,0.24 1.3,0.795 0,0.48 -0.338,0.78 -1.131,0.78 C 0.402,1.575 0.221,1.545 0,1.515 L 0,0 Z m -0.014,-3.165 c 0.208,-0.03 0.365,-0.03 0.663,-0.03 0.677,0 1.353,0.225 1.353,0.945 0,0.63 -0.521,0.93 -1.443,0.93 l -0.573,0 0,-1.845 z M -1.95,2.79 c 0.48,0.075 1.573,0.18 2.56,0.18 1.079,0 3.147,-0.135 3.147,-1.875 0,-0.945 -0.663,-1.44 -1.3,-1.59 l 0,-0.03 c 0.949,-0.18 1.572,-0.795 1.572,-1.785 0,-2.085 -2.457,-2.265 -3.757,-2.265 -0.883,0 -1.82,0.075 -2.222,0.135 l 0,7.23 z"
             style="fill:#cc3038;fill-opacity:1;fill-rule:nonzero;stroke:none"
             id="path160"
             inkscape:connector-curvature="0" /></g><g
           id="g162"
           transform="translate(329.9627,308.5261)"
           style="fill:#cc3038;fill-opacity:1"><path
             d="M 0,0 C 0,0.81 0.481,1.395 1.17,1.395 1.858,1.395 2.327,0.825 2.327,0 2.327,-0.795 1.858,-1.38 1.156,-1.38 0.481,-1.38 0,-0.795 0,0"
             style="fill:#cc3038;fill-opacity:1;fill-rule:nonzero;stroke:none"
             id="path164"
             inkscape:connector-curvature="0" /></g><g
           id="g166"
           transform="translate(340.8973,308.676)"
           style="fill:#cc3038;fill-opacity:1"><path
             d="M 0,0 C 0.949,0.255 1.404,1.14 1.404,2.31 1.404,3.45 0.949,4.335 0,4.605 L 0,0 Z M -1.794,4.62 C -2.756,4.35 -3.198,3.435 -3.198,2.31 -3.198,1.125 -2.743,0.255 -1.794,0 l 0,4.62 z M 0,9.285 0,6.09 C 1.82,5.88 3.355,4.635 3.355,2.28 3.355,-0.105 1.769,-1.335 0,-1.485 l 0,-2.85 -1.794,0 0,2.836 c -1.781,0.164 -3.354,1.409 -3.354,3.749 0,2.4 1.546,3.63 3.354,3.84 l 0,3.195 1.794,0 z"
             style="fill:#cc3038;fill-opacity:1;fill-rule:nonzero;stroke:none"
             id="path168"
             inkscape:connector-curvature="0" /></g><g
           id="g170"
           transform="translate(347.454,310.4612)"
           style="fill:#cc3038;fill-opacity:1"><path
             d="m 0,0 c 0,-0.18 0.013,-0.345 0.039,-0.48 0.13,-0.615 0.585,-1.08 1.156,-1.08 0.859,0 1.366,0.825 1.366,2.07 0,1.17 -0.456,2.055 -1.339,2.055 C 0.662,2.565 0.169,2.085 0.039,1.41 0.013,1.29 0,1.14 0,1.005 L 0,0 Z m -1.977,1.725 c 0,0.96 -0.026,1.785 -0.051,2.459 l 1.716,0 0.09,-1.019 0.027,0 c 0.467,0.78 1.196,1.185 2.119,1.185 1.39,0 2.638,-1.395 2.638,-3.735 0,-2.67 -1.468,-3.93 -2.885,-3.93 -0.768,0 -1.365,0.36 -1.652,0.84 l -0.025,0 0,-3.645 -1.977,0 0,7.845 z"
             style="fill:#cc3038;fill-opacity:1;fill-rule:nonzero;stroke:none"
             id="path172"
             inkscape:connector-curvature="0" /></g><g
           id="g174"
           transform="translate(356.6727,310.7761)"
           style="fill:#cc3038;fill-opacity:1"><path
             d="m 0,0 c -1.04,0.015 -1.846,-0.27 -1.846,-1.155 0,-0.585 0.338,-0.87 0.781,-0.87 0.494,0 0.896,0.375 1.026,0.84 C -0.013,-1.065 0,-0.93 0,-0.795 L 0,0 Z m 0.234,-3.465 -0.117,0.735 -0.039,0 c -0.416,-0.585 -1.065,-0.9 -1.82,-0.9 -1.287,0 -2.054,1.08 -2.054,2.25 0,1.905 1.482,2.82 3.732,2.805 l 0,0.105 c 0,0.39 -0.183,0.945 -1.158,0.945 -0.65,0 -1.339,-0.255 -1.755,-0.555 l -0.364,1.47 c 0.443,0.285 1.314,0.645 2.47,0.645 2.119,0 2.796,-1.44 2.796,-3.165 l 0,-2.55 c 0,-0.705 0.025,-1.38 0.091,-1.785 l -1.782,0 z"
             style="fill:#cc3038;fill-opacity:1;fill-rule:nonzero;stroke:none"
             id="path176"
             inkscape:connector-curvature="0" /></g><g
           id="g178"
           transform="translate(362.1229,314.6457)"
           style="fill:#cc3038;fill-opacity:1"><path
             d="m 0,0 0,-2.925 0.222,0 L 1.82,0 4.135,0 1.794,-3.149 c 0.754,-0.165 1.223,-0.96 1.6,-2.025 0.208,-0.615 0.455,-1.471 0.766,-2.161 l -2.066,0 c -0.169,0.315 -0.325,0.84 -0.573,1.621 -0.286,0.84 -0.675,1.289 -1.326,1.289 l -0.195,0 0,-2.91 -1.963,0 0,7.335 L 0,0 Z"
             style="fill:#cc3038;fill-opacity:1;fill-rule:nonzero;stroke:none"
             id="path180"
             inkscape:connector-curvature="0" /></g><g
           id="g182"
           transform="translate(369.0155,314.6457)"
           style="fill:#cc3038;fill-opacity:1"><path
             d="m 0,0 0,-5.595 1.977,0 0,5.595 1.975,0 0,-5.729 0.702,-0.031 -0.091,-3.945 -1.482,0 -0.064,2.37 -4.993,0 0,7.335 L 0,0 Z"
             style="fill:#cc3038;fill-opacity:1;fill-rule:nonzero;stroke:none"
             id="path184"
             inkscape:connector-curvature="0" /></g><g
           id="g186"
           transform="translate(376.5721,314.6457)"
           style="fill:#cc3038;fill-opacity:1"><path
             d="m 0,0 0,-2.249 c 0,-1.17 -0.052,-1.996 -0.104,-2.985 l 0.052,-0.015 c 0.299,0.839 0.468,1.409 0.728,2.1 L 1.911,0 l 2.418,0 0,-7.335 -1.872,0 0,2.235 c 0,1.14 0.052,1.621 0.117,3.18 l -0.052,0 C 2.274,-2.729 2.119,-3.21 1.858,-3.899 1.456,-4.919 0.975,-6.194 0.533,-7.335 l -2.405,0 0,7.335 L 0,0 Z"
             style="fill:#cc3038;fill-opacity:1;fill-rule:nonzero;stroke:none"
             id="path188"
             inkscape:connector-curvature="0" /></g><g
           id="g190"
           transform="translate(386.1424,313.2961)"
           style="fill:#cc3038;fill-opacity:1"><path
             d="m 0,0 c -0.169,0.03 -0.364,0.06 -0.676,0.06 -0.636,0 -1.182,-0.285 -1.182,-0.945 0,-0.645 0.623,-0.96 1.209,-0.96 0.311,0 0.48,0.015 0.649,0.015 L 0,0 Z m 1.95,-5.985 -1.95,0 0,2.76 -0.403,0 c -0.416,0 -0.715,-0.225 -0.909,-0.525 -0.339,-0.375 -0.495,-1.065 -0.69,-1.635 -0.078,-0.21 -0.143,-0.36 -0.247,-0.6 l -2.105,0 c 0.155,0.225 0.272,0.51 0.389,0.81 0.208,0.585 0.494,1.53 0.897,2.025 0.208,0.255 0.468,0.45 0.806,0.54 l 0,0.045 c -0.715,0.09 -1.638,0.645 -1.638,1.815 0,0.915 0.442,1.44 1.079,1.785 0.585,0.33 1.469,0.435 2.341,0.435 0.987,0 1.872,-0.075 2.43,-0.165 l 0,-7.29 z"
             style="fill:#cc3038;fill-opacity:1;fill-rule:nonzero;stroke:none"
             id="path192"
             inkscape:connector-curvature="0" /></g><g
           id="g194"
           transform="translate(394.2586,314.6457)"
           style="fill:#cc3038;fill-opacity:1"><path
             d="m 0,0 0,-2.925 0.222,0 L 1.82,0 4.135,0 1.794,-3.149 c 0.755,-0.165 1.223,-0.96 1.6,-2.025 0.208,-0.615 0.455,-1.471 0.766,-2.161 l -2.066,0 c -0.17,0.315 -0.325,0.84 -0.573,1.621 -0.286,0.84 -0.675,1.289 -1.326,1.289 l -0.195,0 0,-2.91 -1.963,0 0,7.335 L 0,0 Z"
             style="fill:#cc3038;fill-opacity:1;fill-rule:nonzero;stroke:none"
             id="path196"
             inkscape:connector-curvature="0" /></g><g
           id="g198"
           transform="translate(405.0907,314.6457)"
           style="fill:#cc3038;fill-opacity:1"><path
             d="m 0,0 0,-7.335 -1.989,0 0,5.595 -1.951,0 0,-5.595 -1.975,0 0,7.335 L 0,0 Z"
             style="fill:#cc3038;fill-opacity:1;fill-rule:nonzero;stroke:none"
             id="path200"
             inkscape:connector-curvature="0" /></g><g
           id="g202"
           transform="translate(408.6561,310.4612)"
           style="fill:#cc3038;fill-opacity:1"><path
             d="m 0,0 c 0,-0.18 0.013,-0.345 0.038,-0.48 0.131,-0.615 0.586,-1.08 1.157,-1.08 0.859,0 1.366,0.825 1.366,2.07 0,1.17 -0.456,2.055 -1.339,2.055 C 0.663,2.565 0.169,2.085 0.038,1.41 0.013,1.29 0,1.14 0,1.005 L 0,0 Z m -1.977,1.725 c 0,0.96 -0.026,1.785 -0.051,2.459 l 1.716,0 0.09,-1.019 0.027,0 c 0.467,0.78 1.196,1.185 2.119,1.185 1.39,0 2.638,-1.395 2.638,-3.735 0,-2.67 -1.468,-3.93 -2.885,-3.93 -0.768,0 -1.366,0.36 -1.652,0.84 l -0.025,0 0,-3.645 -1.977,0 0,7.845 z"
             style="fill:#cc3038;fill-opacity:1;fill-rule:nonzero;stroke:none"
             id="path204"
             inkscape:connector-curvature="0" /></g><g
           id="g206"
           transform="translate(419.2401,308.676)"
           style="fill:#cc3038;fill-opacity:1"><path
             d="M 0,0 C 0.949,0.255 1.404,1.14 1.404,2.31 1.404,3.45 0.949,4.335 0,4.605 L 0,0 Z M -1.794,4.62 C -2.756,4.35 -3.198,3.435 -3.198,2.31 -3.198,1.125 -2.743,0.255 -1.794,0 l 0,4.62 z M 0,9.285 0,6.09 C 1.82,5.88 3.355,4.635 3.355,2.28 3.355,-0.105 1.769,-1.335 0,-1.485 l 0,-2.85 -1.794,0 0,2.836 c -1.781,0.164 -3.354,1.409 -3.354,3.749 0,2.4 1.547,3.63 3.354,3.84 l 0,3.195 1.794,0 z"
             style="fill:#cc3038;fill-opacity:1;fill-rule:nonzero;stroke:none"
             id="path208"
             inkscape:connector-curvature="0" /></g><path
           d="m 138.29,384.24 56.595,0 0,-56.595 -56.595,0 0,56.595 z"
           style="fill:#dd0816;fill-opacity:1;fill-rule:evenodd;stroke:none"
           id="path210"
           inkscape:connector-curvature="0" /><path
           d="m 140.046,329.419 53.066,0 0,53.066 -53.066,0 0,-53.066 z m -0.354,53.773 54.127,0 0,-54.481 -54.481,0 0,54.481 0.354,0 z"
           style="fill:#ffffff;fill-opacity:1;fill-rule:evenodd;stroke:none"
           id="path212"
           inkscape:connector-curvature="0" /><g
           id="g214"
           transform="translate(174.8279,344.5744)"><path
             d="M 0,0 C -0.067,0.133 -0.094,0.267 -0.053,0.4 -0.014,0.547 0.066,0.653 0.2,0.72 0.32,0.786 0.453,0.8 0.6,0.76 0.733,0.72 0.84,0.653 0.92,0.533 0.986,0.4 1.013,0.267 0.973,0.133 0.933,-0.013 0.853,-0.12 0.719,-0.186 0.6,-0.267 0.466,-0.28 0.32,-0.24 0.186,-0.2 0.08,-0.12 0,0 M 3.118,2.439 3.519,0.853 2.999,0.413 2.892,0.547 3.079,0.706 1.919,2.013 1.732,1.853 1.626,1.986 1.812,2.146 2.146,2.439 2.332,2.599 2.439,2.466 2.252,2.306 3.239,1.173 2.812,2.772 2.999,2.932 4.531,2.306 3.545,3.425 3.359,3.265 3.252,3.399 3.439,3.559 3.572,3.679 3.745,3.838 3.865,3.705 3.678,3.545 4.825,2.226 5.011,2.386 5.131,2.252 4.944,2.092 4.625,1.813 3.118,2.439 Z M 5.358,4.198 5.291,4.118 C 5.224,4.039 5.131,3.972 5.024,3.918 4.918,3.865 4.798,3.892 4.651,3.985 c -0.12,0.08 -0.186,0.173 -0.2,0.307 -0.013,0.12 0.027,0.239 0.12,0.373 0.107,0.12 0.2,0.186 0.32,0.213 0.107,0.013 0.214,-0.013 0.307,-0.08 L 5.304,4.931 4.891,5.278 4.771,5.145 4.891,5.065 C 4.731,5.025 4.571,4.931 4.425,4.758 4.212,4.491 4.105,4.265 4.132,4.065 4.158,3.865 4.238,3.705 4.385,3.612 4.478,3.545 4.585,3.505 4.705,3.519 4.811,3.545 4.931,3.599 5.051,3.679 L 5.105,3.732 5.118,3.719 5.078,3.665 C 5.038,3.559 5.011,3.452 5.024,3.345 c 0.014,-0.106 0.081,-0.2 0.2,-0.28 0.107,-0.08 0.24,-0.106 0.374,-0.066 0.146,0.026 0.28,0.106 0.399,0.253 0.16,0.16 0.227,0.347 0.2,0.533 L 6.317,3.745 6.424,3.879 6.051,4.198 5.931,4.065 C 6.011,3.998 6.064,3.905 6.077,3.812 6.091,3.705 6.064,3.599 5.984,3.505 5.917,3.425 5.838,3.372 5.758,3.345 c -0.094,-0.013 -0.187,0 -0.28,0.067 -0.094,0.067 -0.16,0.16 -0.174,0.28 -0.013,0.12 0.027,0.226 0.107,0.32 l 0.067,0.08 -0.12,0.106 z M 6.411,6.531 6.997,5.091 7.064,5.051 7.197,5.251 7.343,5.158 7.21,4.958 6.97,4.571 6.85,4.358 6.69,4.452 6.824,4.665 5.344,5.598 5.211,5.384 5.064,5.478 5.198,5.691 5.437,6.078 5.558,6.277 5.704,6.184 5.584,5.971 6.744,5.238 6.157,6.691 6.064,6.757 5.931,6.544 5.784,6.637 5.917,6.837 6.157,7.224 6.277,7.437 6.437,7.344 6.304,7.13 7.783,6.211 7.917,6.411 8.063,6.317 7.93,6.104 7.69,5.718 7.57,5.518 7.423,5.611 7.543,5.824 6.411,6.531 Z M 8.343,7.957 8.276,8.01 7.277,9.01 C 7.224,9.076 7.184,9.13 7.157,9.196 7.13,9.263 7.13,9.343 7.17,9.423 7.197,9.476 7.237,9.543 7.29,9.609 L 7.557,9.329 C 7.504,9.316 7.463,9.276 7.45,9.236 7.423,9.183 7.45,9.116 7.517,9.036 L 8.636,7.89 8.73,8.103 8.89,8.037 8.796,7.824 8.663,7.517 6.61,7.637 6.517,7.45 6.357,7.517 6.73,8.357 6.89,8.277 6.797,8.063 8.263,7.97 l 0.08,-0.026 0,0.013 z m 0.88,2.479 0.066,-0.027 0,-0.013 -0.08,0.013 -0.959,-0.146 0.213,0.759 0.76,-0.586 z m -1.16,-0.2 -0.426,-0.067 0.053,0.24 -0.16,0.04 L 7.277,9.543 7.45,9.49 l 0.067,0.226 2.079,0.333 0.066,0.254 -1.652,1.252 0.053,0.227 -0.173,0.04 -0.16,-0.613 0.173,-0.04 0.054,0.213 0.346,-0.253 -0.24,-0.893 z m 0.64,3.172 1.146,-1.066 0.067,-0.014 0.04,0.253 0.173,-0.026 -0.027,-0.24 -0.053,-0.44 -0.04,-0.253 -0.173,0.026 0.026,0.24 -1.732,0.214 -0.027,-0.24 -0.173,0.013 0.027,0.253 0.053,0.44 0.027,0.24 0.173,-0.013 -0.027,-0.253 1.373,-0.16 -1.146,1.066 -0.107,0.013 -0.04,-0.253 -0.173,0.026 0.027,0.24 0.066,0.454 0.027,0.239 0.173,-0.026 -0.027,-0.24 1.733,-0.213 0.027,0.24 0.173,-0.014 -0.027,-0.24 -0.053,-0.453 -0.027,-0.24 -0.173,0.014 0.027,0.253 -1.333,0.16 z m -0.306,2.612 0.039,-0.906 1.706,0.053 -0.013,0.253 0.187,0 0,-0.226 0.013,-0.467 0.013,-0.24 -0.173,-0.013 -0.013,0.253 -1.746,-0.066 0.013,-0.28 -0.76,-0.027 -0.013,0.36 0.587,0.027 -0.067,1.719 -0.013,0.24 0.186,0.013 0,-0.24 1.746,0.053 0,0.241 0.173,0.013 0.014,-0.24 0.013,-0.453 0.013,-0.253 -0.186,0 0,0.239 -1.719,-0.053 z m 0.386,3.399 c 0.173,0.026 0.36,0.013 0.546,-0.053 0.174,-0.067 0.333,-0.174 0.467,-0.334 0.133,-0.16 0.226,-0.346 0.266,-0.573 0.054,-0.213 0.04,-0.426 -0.026,-0.626 C 9.969,17.646 9.862,17.473 9.716,17.353 9.569,17.22 9.409,17.14 9.223,17.099 9.05,17.06 8.863,17.086 8.676,17.153 8.49,17.206 8.343,17.326 8.197,17.486 c -0.134,0.147 -0.214,0.347 -0.267,0.56 -0.04,0.226 -0.027,0.44 0.04,0.64 0.067,0.186 0.173,0.359 0.32,0.48 0.146,0.133 0.306,0.213 0.493,0.253 m 0.093,-0.52 C 8.663,18.859 8.503,18.792 8.37,18.712 8.25,18.619 8.157,18.512 8.117,18.406 8.077,18.286 8.063,18.179 8.09,18.086 c 0.013,-0.107 0.067,-0.2 0.147,-0.293 0.079,-0.08 0.186,-0.147 0.333,-0.187 0.16,-0.04 0.333,-0.04 0.559,0 0.214,0.04 0.387,0.107 0.507,0.2 0.133,0.093 0.213,0.187 0.254,0.306 0.039,0.107 0.052,0.214 0.026,0.32 -0.026,0.174 -0.133,0.307 -0.307,0.413 -0.173,0.094 -0.413,0.121 -0.733,0.054 m 0.827,1.213 -0.56,-0.2 -0.054,0.173 c 0.107,0.04 0.187,0.133 0.24,0.253 0.054,0.134 0.054,0.267 0,0.4 -0.04,0.12 -0.106,0.227 -0.213,0.307 C 9.023,21.111 8.89,21.164 8.73,21.178 8.57,21.191 8.397,21.164 8.21,21.085 7.97,20.991 7.797,20.858 7.677,20.685 7.57,20.512 7.543,20.325 7.623,20.112 7.703,19.885 7.877,19.739 8.117,19.659 L 8.05,19.472 c -0.293,0.133 -0.507,0.347 -0.613,0.64 -0.08,0.186 -0.094,0.386 -0.08,0.586 0.027,0.2 0.093,0.373 0.227,0.533 0.119,0.16 0.279,0.28 0.479,0.36 0.187,0.067 0.387,0.093 0.587,0.053 0.186,-0.04 0.359,-0.12 0.519,-0.253 0.147,-0.146 0.254,-0.32 0.307,-0.533 0.053,-0.186 0.053,-0.373 0,-0.56 l 0.186,-0.04 0.041,-0.146 z m -2.386,2.679 c -0.133,-0.067 -0.267,-0.08 -0.4,-0.04 -0.147,0.04 -0.253,0.133 -0.32,0.253 -0.066,0.133 -0.08,0.266 -0.04,0.413 0.04,0.133 0.133,0.24 0.267,0.307 0.12,0.066 0.253,0.08 0.4,0.04 C 7.357,23.724 7.463,23.63 7.53,23.51 7.597,23.377 7.61,23.244 7.57,23.111 7.53,22.964 7.437,22.857 7.317,22.791 m -1.066,3.665 0.493,-0.6 -0.16,-0.133 0.106,-0.134 0.32,0.267 -1.039,1.266 -0.133,-0.106 0.159,-0.187 -1.359,-1.106 -0.16,0.186 -0.133,-0.106 1.066,-1.32 0.347,0.28 -0.107,0.133 -0.173,-0.146 -0.534,0.653 0.627,0.506 0.413,-0.506 -0.16,-0.147 0.107,-0.12 0.48,0.387 -0.107,0.133 -0.173,-0.146 -0.413,0.519 0.533,0.427 z m -2.759,1.133 1.559,0.213 0.054,0.053 -0.174,0.174 0.133,0.119 0.16,-0.16 0.32,-0.333 0.174,-0.173 -0.134,-0.133 -0.173,0.186 -1.253,-1.213 0.173,-0.186 -0.133,-0.12 -0.173,0.186 -0.307,0.32 -0.173,0.174 0.133,0.12 0.16,-0.174 1,0.96 -1.546,-0.227 -0.093,-0.079 0.173,-0.174 -0.12,-0.12 -0.173,0.173 -0.307,0.32 -0.173,0.187 0.12,0.12 0.173,-0.187 1.266,1.227 -0.173,0.173 0.12,0.12 0.173,-0.174 0.32,-0.333 0.16,-0.173 -0.12,-0.12 -0.173,0.186 -0.973,-0.932 z m -1.76,0.733 0.161,-0.133 0.199,-0.16 0.107,0.146 -0.187,0.147 1.08,1.386 0.387,-0.32 -0.134,-0.173 0.16,-0.12 0.24,0.32 -1.453,1.132 -0.253,-0.319 0.16,-0.107 0.133,0.173 0.4,-0.32 -1.08,-1.372 -0.186,0.146 -0.12,-0.133 0.2,-0.147 0.186,-0.146 z m 0.134,2.545 -0.28,-0.519 -0.16,0.079 c 0.053,0.107 0.053,0.227 0,0.361 -0.04,0.133 -0.133,0.226 -0.253,0.293 -0.12,0.066 -0.24,0.093 -0.36,0.08 C 0.68,31.147 0.56,31.107 0.426,31.001 0.306,30.907 0.186,30.774 0.093,30.588 -0.014,30.361 -0.053,30.148 -0.027,29.934 0,29.734 0.12,29.575 0.32,29.468 c 0.213,-0.107 0.426,-0.107 0.666,0 l 0.08,-0.187 c -0.306,-0.093 -0.613,-0.08 -0.893,0.067 -0.173,0.093 -0.32,0.213 -0.44,0.386 -0.119,0.16 -0.186,0.347 -0.2,0.547 -0.013,0.2 0.027,0.386 0.12,0.586 0.094,0.174 0.227,0.32 0.4,0.427 0.174,0.106 0.36,0.16 0.56,0.16 0.2,-0.014 0.4,-0.067 0.586,-0.187 0.16,-0.106 0.294,-0.24 0.374,-0.427 l 0.159,0.094 0.134,-0.067 z m -3.372,1.186 -0.667,-0.706 0.734,-0.28 -0.041,0.973 0.014,0.067 -0.014,0 -0.026,-0.054 z m 0.08,-1.172 -0.866,0.333 -0.294,-0.32 0.214,-0.08 -0.067,-0.16 -0.586,0.227 0.053,0.16 0.226,-0.08 1.413,1.519 0.24,-0.093 0.12,-2.12 0.213,-0.08 -0.067,-0.159 -0.879,0.333 0.067,0.173 0.226,-0.093 -0.013,0.44 z m -2.253,1.892 0.014,-0.013 -0.014,-0.08 0.134,-1.466 -0.227,0.066 -0.054,-0.173 0.88,-0.226 0.054,0.16 -0.213,0.053 -0.187,2.052 -0.32,0.08 -0.24,0.067 -0.04,-0.173 0.227,-0.053 -0.96,-1.28 c -0.053,-0.093 -0.12,-0.12 -0.187,-0.107 -0.039,0.014 -0.08,0.04 -0.106,0.094 l -0.227,-0.307 c 0.067,-0.04 0.134,-0.08 0.2,-0.093 0.094,-0.027 0.16,-0.013 0.227,0.026 0.053,0.04 0.106,0.08 0.16,0.147 l 0.839,1.146 0.04,0.08 z m -2.492,0.027 0.147,-0.014 c 0.12,-0.013 0.226,0.014 0.306,0.08 0.08,0.067 0.134,0.147 0.134,0.254 0.013,0.08 -0.014,0.16 -0.067,0.24 -0.067,0.08 -0.16,0.12 -0.293,0.133 l -0.147,0.026 -0.08,-0.719 z m -0.133,-1.013 0.186,-0.027 c 0.12,-0.013 0.24,0.014 0.334,0.08 0.106,0.067 0.159,0.173 0.159,0.293 0.027,0.174 -0.013,0.294 -0.119,0.36 -0.094,0.067 -0.2,0.094 -0.307,0.107 l -0.147,0.027 -0.106,-0.84 z m 0.653,0.893 0,-0.013 c 0.147,-0.027 0.266,-0.094 0.36,-0.187 0.093,-0.093 0.133,-0.226 0.12,-0.386 -0.014,-0.187 -0.107,-0.334 -0.267,-0.427 -0.16,-0.093 -0.346,-0.133 -0.546,-0.107 l -1.027,0.134 0.014,0.173 0.24,-0.04 0.213,1.746 -0.24,0.026 0.027,0.174 0.973,-0.12 c 0.253,-0.027 0.426,-0.107 0.519,-0.213 0.08,-0.107 0.12,-0.227 0.12,-0.334 -0.013,-0.119 -0.066,-0.226 -0.146,-0.306 -0.094,-0.08 -0.213,-0.12 -0.36,-0.12 m -3.918,0.08 c 0,-0.187 0.053,-0.36 0.159,-0.533 0.094,-0.16 0.24,-0.293 0.414,-0.4 0.186,-0.093 0.399,-0.147 0.613,-0.133 0.226,0 0.439,0.053 0.613,0.16 0.173,0.106 0.32,0.24 0.413,0.413 0.093,0.173 0.146,0.346 0.133,0.533 0,0.187 -0.053,0.36 -0.146,0.519 -0.107,0.174 -0.254,0.307 -0.427,0.401 -0.186,0.093 -0.386,0.146 -0.613,0.146 -0.226,-0.013 -0.427,-0.067 -0.613,-0.173 -0.173,-0.107 -0.32,-0.24 -0.413,-0.413 -0.094,-0.16 -0.133,-0.347 -0.133,-0.52 m 0.519,0 c 0,-0.213 0.04,-0.387 0.107,-0.533 0.066,-0.133 0.146,-0.24 0.253,-0.293 0.107,-0.067 0.2,-0.094 0.307,-0.094 0.106,0 0.213,0.04 0.306,0.094 0.107,0.066 0.187,0.16 0.254,0.306 0.066,0.133 0.093,0.32 0.093,0.546 -0.014,0.227 -0.04,0.4 -0.107,0.533 -0.066,0.147 -0.16,0.241 -0.253,0.307 -0.107,0.054 -0.213,0.08 -0.32,0.08 -0.173,0 -0.32,-0.08 -0.453,-0.226 -0.133,-0.161 -0.2,-0.4 -0.187,-0.72 m -1.985,0.346 -0.347,-1.399 1.013,0.12 -0.613,1.293 -0.027,0.093 -0.026,0 0,-0.107 z m 0.213,0.574 0.933,-1.826 0.24,0.026 0.093,-0.76 -0.32,-0.039 -0.08,0.586 -1.519,-0.187 0.066,-0.586 -0.333,-0.04 -0.093,0.76 0.24,0.026 0.439,1.813 -0.226,-0.027 -0.027,0.173 0.253,0.041 0.334,0.04 z m -3.586,-1.92 c -0.04,0.174 -0.04,0.36 0.014,0.547 0.053,0.186 0.147,0.346 0.293,0.493 0.147,0.146 0.333,0.253 0.546,0.306 0.227,0.054 0.44,0.067 0.64,0.014 0.2,-0.053 0.36,-0.147 0.507,-0.28 0.133,-0.147 0.226,-0.293 0.28,-0.48 0.053,-0.173 0.039,-0.36 -0.014,-0.546 -0.053,-0.187 -0.146,-0.36 -0.293,-0.493 -0.146,-0.147 -0.333,-0.254 -0.546,-0.307 -0.227,-0.067 -0.427,-0.067 -0.64,-0.013 -0.2,0.053 -0.36,0.146 -0.507,0.279 -0.133,0.134 -0.226,0.294 -0.28,0.48 m 0.507,0.134 c 0.053,-0.214 0.133,-0.373 0.227,-0.494 0.106,-0.12 0.213,-0.2 0.32,-0.226 0.12,-0.04 0.226,-0.04 0.333,-0.013 0.093,0.026 0.186,0.08 0.266,0.16 0.08,0.093 0.147,0.2 0.174,0.359 0.026,0.147 0.013,0.333 -0.041,0.547 -0.066,0.213 -0.146,0.386 -0.239,0.506 -0.094,0.107 -0.2,0.187 -0.32,0.213 -0.12,0.041 -0.227,0.041 -0.334,0.014 -0.159,-0.04 -0.293,-0.16 -0.373,-0.333 -0.093,-0.187 -0.093,-0.427 -0.013,-0.733 m -1.639,-0.747 -0.387,0.88 c 0.133,0.067 0.253,0.093 0.387,0.08 0.12,-0.013 0.226,-0.107 0.293,-0.253 0.08,-0.147 0.093,-0.28 0.067,-0.374 -0.027,-0.106 -0.08,-0.173 -0.147,-0.226 -0.067,-0.054 -0.147,-0.093 -0.213,-0.107 m 0.066,-0.146 0.267,-0.574 0.227,0.094 0.066,-0.16 -0.227,-0.094 -0.413,-0.186 -0.226,-0.107 -0.067,0.16 0.213,0.107 -0.706,1.599 -0.226,-0.106 -0.067,0.173 0.226,0.093 0.494,0.227 c 0.226,0.093 0.439,0.146 0.639,0.146 0.187,0 0.333,-0.119 0.44,-0.36 0.04,-0.093 0.067,-0.186 0.067,-0.266 0.013,-0.093 -0.014,-0.187 -0.054,-0.267 -0.04,-0.093 -0.12,-0.173 -0.213,-0.253 -0.107,-0.08 -0.253,-0.16 -0.44,-0.226 m -2.319,-0.294 -0.027,0.067 0.014,0.014 0.027,-0.067 0.786,-0.587 -0.693,-0.386 -0.107,0.959 z m 0.946,-0.693 0.347,-0.266 -0.213,-0.12 0.08,-0.147 0.826,0.453 -0.08,0.16 -0.213,-0.12 -1.679,1.267 -0.214,-0.121 0.24,-2.065 -0.2,-0.107 0.094,-0.16 0.533,0.307 -0.08,0.16 -0.2,-0.12 -0.053,0.44 0.812,0.439 z m -2.932,-1.532 0.533,-0.667 0.187,0.16 0.107,-0.146 -0.187,-0.147 -0.36,-0.28 -0.186,-0.147 -0.12,0.134 0.2,0.146 -1.08,1.386 -0.187,-0.146 -0.119,0.133 0.199,0.147 0.36,0.293 0.187,0.147 0.107,-0.147 -0.187,-0.147 0.44,-0.573 0.746,0.587 -0.453,0.56 -0.187,-0.147 -0.106,0.133 0.186,0.147 0.36,0.293 0.187,0.147 0.12,-0.147 -0.2,-0.147 1.079,-1.372 0.187,0.146 0.12,-0.133 -0.2,-0.16 -0.36,-0.28 -0.186,-0.147 -0.107,0.134 0.187,0.16 -0.52,0.666 -0.747,-0.586 z m -1.439,-1.72 c 0.12,-0.093 0.173,-0.213 0.186,-0.36 0.014,-0.146 -0.039,-0.266 -0.133,-0.386 -0.093,-0.107 -0.213,-0.16 -0.36,-0.173 -0.146,-0.014 -0.266,0.026 -0.386,0.119 -0.107,0.107 -0.16,0.227 -0.173,0.374 -0.014,0.146 0.026,0.266 0.12,0.373 0.106,0.12 0.226,0.173 0.373,0.187 0.133,0.013 0.266,-0.027 0.373,-0.134 m -2.746,-2.585 0.92,-1.12 0.507,0.88 -1.4,0.28 -0.093,0.04 -0.014,-0.014 0.08,-0.066 z m -0.319,0.52 -0.174,-0.307 -0.12,-0.213 0.16,-0.094 0.107,0.2 1.186,-1.439 -0.12,-0.2 0.653,-0.386 0.173,0.293 -0.506,0.28 0.773,1.346 0.506,-0.294 0.16,0.281 -0.653,0.386 -0.12,-0.213 -2.025,0.36 z m -0.027,-2.559 -0.733,0.759 -0.093,-0.213 -0.174,0.067 0.254,0.599 0.159,-0.066 -0.093,-0.214 1.24,-1.279 c 0.08,-0.08 0.146,-0.16 0.173,-0.226 0.04,-0.067 0.04,-0.16 0,-0.267 -0.04,-0.093 -0.107,-0.173 -0.173,-0.227 l -0.214,0.227 c 0.094,0.053 0.147,0.107 0.16,0.16 0.027,0.066 0.014,0.146 -0.053,0.226 l -0.067,0.054 -1.666,-0.16 -0.066,-0.173 -0.16,0.066 0.333,0.827 0.16,-0.067 -0.093,-0.227 1.093,0.094 0.066,-0.014 0.014,0.014 -0.067,0.04 z m -0.787,-2.199 -0.919,0.266 c 0.026,0.147 0.08,0.267 0.173,0.347 0.093,0.08 0.227,0.106 0.387,0.066 0.16,-0.04 0.266,-0.106 0.333,-0.186 0.053,-0.094 0.08,-0.174 0.08,-0.267 -0.013,-0.08 -0.027,-0.16 -0.054,-0.226 m 0.16,-0.04 c 0.054,0.186 0.081,0.346 0.094,0.479 0,0.12 -0.013,0.24 -0.054,0.32 -0.04,0.093 -0.093,0.16 -0.159,0.213 -0.08,0.054 -0.16,0.094 -0.254,0.12 -0.253,0.08 -0.44,0.04 -0.573,-0.106 -0.12,-0.147 -0.213,-0.334 -0.28,-0.587 l -0.16,-0.519 -0.066,-0.24 0.173,-0.04 0.067,0.226 1.679,-0.48 -0.067,-0.226 0.174,-0.054 0.066,0.227 0.12,0.44 0.08,0.24 -0.173,0.053 -0.067,-0.24 -0.6,0.174 z m 0.36,-1.96 -0.053,-0.226 -0.04,-0.24 -0.173,0.027 0.053,0.253 -1.719,0.333 -0.107,-0.507 0.227,-0.04 -0.04,-0.186 -0.387,0.08 0.347,1.812 0.386,-0.079 -0.026,-0.187 -0.227,0.04 -0.093,-0.493 1.719,-0.333 0.04,0.239 0.173,-0.04 -0.04,-0.239 -0.04,-0.214 z m -1.026,-2.146 c 0.147,0 0.267,-0.066 0.373,-0.173 0.094,-0.106 0.147,-0.226 0.133,-0.373 0,-0.146 -0.053,-0.267 -0.16,-0.373 -0.106,-0.094 -0.239,-0.147 -0.386,-0.133 -0.146,0 -0.267,0.053 -0.36,0.159 -0.106,0.107 -0.146,0.241 -0.146,0.387 0,0.147 0.066,0.267 0.173,0.36 0.107,0.107 0.226,0.146 0.373,0.146 m -0.893,-3.451 c 0.027,-0.36 0.2,-0.533 0.533,-0.494 0.187,0.027 0.307,0.094 0.36,0.214 0.053,0.106 0.053,0.253 0,0.439 l -0.893,-0.159 z m -0.08,0.439 1.733,0.307 -0.054,0.253 0.174,0.027 0.053,-0.253 0.067,-0.44 0.053,-0.24 -0.173,-0.027 -0.054,0.24 -0.653,-0.12 c 0,-0.093 0.027,-0.173 0.067,-0.2 0.04,-0.04 0.093,-0.066 0.173,-0.093 l 0.573,-0.187 c 0.12,-0.04 0.187,-0.133 0.214,-0.28 0.026,-0.133 0.04,-0.253 0.026,-0.373 l -0.173,-0.04 0,0.027 c -0.013,0.013 -0.013,0.027 -0.013,0.04 -0.014,0.053 -0.027,0.093 -0.054,0.107 -0.026,0.04 -0.093,0.08 -0.2,0.119 l -0.373,0.134 c -0.12,0.04 -0.2,0.106 -0.226,0.187 l -0.014,0 c 0,-0.081 -0.013,-0.16 -0.053,-0.241 -0.027,-0.093 -0.08,-0.159 -0.147,-0.226 -0.066,-0.067 -0.159,-0.107 -0.253,-0.12 -0.107,-0.027 -0.213,-0.013 -0.32,0.027 -0.093,0.04 -0.186,0.12 -0.253,0.213 -0.08,0.106 -0.133,0.24 -0.16,0.4 l -0.133,0.733 -0.04,0.24 0.173,0.04 0.04,-0.254 z m 2.173,-3.291 -1.493,0.479 -0.067,-0.013 0.08,-0.24 -0.173,-0.053 -0.08,0.226 -0.133,0.427 -0.08,0.24 0.173,0.053 0.08,-0.227 1.666,0.533 -0.08,0.24 0.16,0.054 0.08,-0.24 0.133,-0.427 0.08,-0.226 -0.16,-0.053 -0.08,0.226 -1.306,-0.426 1.48,-0.48 0.106,0.04 -0.08,0.226 0.173,0.067 0.067,-0.24 0.147,-0.426 0.08,-0.24 -0.174,-0.054 -0.066,0.24 -1.666,-0.546 0.066,-0.227 -0.16,-0.053 -0.08,0.226 -0.146,0.44 -0.067,0.227 0.173,0.053 0.067,-0.24 1.28,0.414 z m -1,-1.693 0.067,-0.147 0.2,-0.013 c -0.04,-0.187 -0.014,-0.373 0.066,-0.547 0.093,-0.213 0.214,-0.373 0.387,-0.479 0.16,-0.12 0.346,-0.187 0.546,-0.187 0.2,-0.013 0.387,0.04 0.573,0.133 0.187,0.107 0.333,0.24 0.427,0.413 0.106,0.174 0.146,0.374 0.146,0.574 -0.013,0.2 -0.066,0.386 -0.16,0.559 -0.146,0.267 -0.386,0.454 -0.706,0.547 l -0.027,-0.187 c 0.254,-0.053 0.427,-0.173 0.547,-0.373 0.106,-0.213 0.12,-0.4 0.027,-0.586 -0.094,-0.187 -0.24,-0.347 -0.467,-0.467 -0.187,-0.106 -0.346,-0.16 -0.506,-0.173 -0.16,0 -0.294,0.026 -0.4,0.093 -0.12,0.053 -0.2,0.147 -0.254,0.267 -0.066,0.12 -0.08,0.253 -0.053,0.386 0.027,0.134 0.093,0.24 0.2,0.293 l -0.08,0.16 -0.533,-0.266 z m 1.106,-2.053 0.507,0.307 0.093,-0.147 c -0.107,-0.066 -0.16,-0.173 -0.187,-0.306 -0.013,-0.134 0.014,-0.267 0.094,-0.387 0.066,-0.107 0.16,-0.186 0.28,-0.24 0.106,-0.053 0.239,-0.08 0.399,-0.053 0.16,0.026 0.32,0.093 0.493,0.2 0.214,0.146 0.347,0.32 0.427,0.507 0.066,0.199 0.04,0.386 -0.08,0.586 -0.133,0.186 -0.32,0.306 -0.573,0.333 l 0.013,0.187 c 0.32,-0.067 0.573,-0.227 0.747,-0.494 0.106,-0.159 0.173,-0.333 0.2,-0.533 0.026,-0.213 0,-0.4 -0.094,-0.586 -0.08,-0.174 -0.213,-0.333 -0.386,-0.453 -0.173,-0.107 -0.36,-0.174 -0.56,-0.187 -0.2,0 -0.386,0.04 -0.56,0.147 -0.173,0.093 -0.32,0.24 -0.426,0.44 -0.094,0.173 -0.134,0.36 -0.12,0.546 l -0.187,0 -0.08,0.133 z m 3.652,-3.078 c 0.147,0.119 0.253,0.266 0.32,0.453 0.067,0.186 0.08,0.373 0.04,0.586 -0.04,0.2 -0.133,0.387 -0.28,0.56 -0.147,0.173 -0.307,0.293 -0.506,0.373 -0.2,0.067 -0.387,0.093 -0.574,0.053 -0.199,-0.026 -0.359,-0.106 -0.506,-0.226 -0.147,-0.12 -0.24,-0.267 -0.306,-0.453 -0.067,-0.187 -0.08,-0.374 -0.041,-0.573 0.041,-0.214 0.12,-0.4 0.267,-0.573 0.147,-0.174 0.32,-0.294 0.52,-0.36 0.186,-0.08 0.386,-0.094 0.573,-0.067 0.186,0.04 0.36,0.107 0.493,0.227 m -0.333,0.399 c 0.173,0.134 0.28,0.28 0.346,0.414 0.067,0.146 0.094,0.266 0.08,0.386 -0.013,0.12 -0.066,0.227 -0.133,0.307 -0.067,0.08 -0.147,0.133 -0.267,0.173 -0.106,0.04 -0.239,0.04 -0.386,0 -0.147,-0.04 -0.307,-0.12 -0.48,-0.267 -0.173,-0.146 -0.293,-0.28 -0.36,-0.426 -0.053,-0.133 -0.08,-0.267 -0.066,-0.387 0.026,-0.12 0.066,-0.213 0.133,-0.293 0.107,-0.133 0.267,-0.2 0.466,-0.213 0.2,0 0.427,0.093 0.667,0.306 m 1.373,-1.159 c -0.04,0.053 -0.107,0.093 -0.187,0.133 -0.067,0.04 -0.16,0.053 -0.266,0.04 -0.107,-0.013 -0.2,-0.08 -0.307,-0.213 -0.107,-0.133 -0.147,-0.267 -0.107,-0.387 0.04,-0.106 0.12,-0.213 0.24,-0.306 l 0.627,0.733 z m 0.106,0.12 0.413,0.466 -0.186,0.174 0.106,0.133 0.201,-0.174 0.332,-0.293 0.187,-0.16 -0.107,-0.133 -0.186,0.16 -1.146,-1.32 0.173,-0.159 -0.107,-0.12 -0.186,0.146 -0.413,0.36 c -0.187,0.16 -0.334,0.333 -0.4,0.507 -0.08,0.173 -0.04,0.36 0.133,0.559 0.067,0.08 0.133,0.134 0.213,0.174 0.08,0.04 0.173,0.066 0.267,0.066 0.093,-0.013 0.2,-0.04 0.32,-0.093 0.12,-0.067 0.24,-0.16 0.386,-0.293 m 1.706,-1.306 c 0.067,0.12 0.187,0.186 0.333,0.226 0.134,0.027 0.267,0 0.387,-0.08 0.133,-0.08 0.2,-0.173 0.24,-0.319 0.026,-0.147 0,-0.267 -0.08,-0.401 -0.08,-0.119 -0.187,-0.199 -0.333,-0.226 -0.147,-0.027 -0.28,0 -0.4,0.08 -0.12,0.08 -0.187,0.187 -0.213,0.333 -0.027,0.133 0,0.267 0.066,0.387"
             style="fill:#ffffff;fill-opacity:1;fill-rule:evenodd;stroke:none"
             id="path216"
             inkscape:connector-curvature="0" /></g><g
           id="g218"
           transform="translate(156.3321,351.5298)"><path
             d="m 0,0 c -0.234,-0.308 -0.329,-1.221 0.122,-1.481 0.351,-0.208 0.617,-0.299 1.193,0.043 0.608,0.361 1.614,2.543 1.903,2.784 l 1.464,1.23 C 4.657,2.604 4.533,2.729 4.35,2.906 4.382,2.936 4.803,3.276 4.837,3.324 5.737,2.335 6.135,1.942 7.269,1.106 7.341,1.051 8.315,0.091 9.511,-0.285 c 2.13,-0.677 4.605,-0.563 5.443,-0.315 0.885,0.266 2.409,0.816 2.963,1.27 0.372,0.298 1.255,1.2 1.515,1.598 1.045,1.572 1.342,3.712 1.277,5.277 -0.088,1.094 -0.336,2.281 -0.656,3.381 -0.032,0.107 -0.732,2.011 -1.217,2.616 -0.098,0.124 -1.537,2.543 -2.141,3.259 -3.065,3.621 -4.057,4.091 -4.909,4.861 0.52,-0.792 2.941,-2.833 4.592,-5.339 0.864,-1.314 1.588,-2.357 1.863,-3.158 0.279,-0.816 0.808,-3.012 0.88,-3.229 L 19.34,9.906 19.45,7.912 19.615,7.836 19.018,5.617 19.204,5.528 18.004,3.491 18.143,3.322 16.344,1.983 16.415,1.777 14.728,1.069 14.798,0.833 12.838,0.858 12.77,0.686 11.001,1.084 10.961,0.842 9.696,1.412 9.56,1.234 8.332,1.941 8.25,1.873 7.176,2.68 7.065,2.61 6.119,3.557 6.009,3.465 5.041,4.406 4.03,3.284 3.548,3.635 C 3.019,3.108 3.205,2.5 1.927,1.559 0.604,0.583 0.173,0.228 0,0"
             style="fill:#ffffff;fill-opacity:1;fill-rule:evenodd;stroke:none"
             id="path220"
             inkscape:connector-curvature="0" /></g><g
           id="g222"
           transform="translate(165.5858,369.8526)"><path
             d="m 0,0 -3.773,-3.704 15.018,-14.845 c -0.026,-0.392 -0.135,-0.686 -0.369,-0.905 -0.196,-0.181 -0.623,-0.355 -0.924,-0.287 l -14.528,15.252 -2.584,-2.535 -2.082,2.086 2.595,2.403 -0.324,0.388 0.826,0.808 0.388,-0.37 1.498,1.426 L 0,0 Z"
             style="fill:#ffffff;fill-opacity:1;fill-rule:evenodd;stroke:none"
             id="path224"
             inkscape:connector-curvature="0" /></g><g
           id="g226"
           transform="translate(166.5803,366.8946)"><path
             d="m 0,0 c 1.599,1.079 2.759,1.306 3.838,1.2 0.773,-0.094 1.48,-0.307 2.346,-0.667 1.706,-0.72 3.678,-0.76 5.384,-0.68 L 7.717,-18.606 c -3.625,0.32 -4.785,2.319 -7.531,0.547 L 0,-18.179 l -0.173,0.12 c -2.733,1.772 -3.905,-0.227 -7.517,-0.56 l -3.852,18.472 c 1.693,-0.08 3.665,-0.053 5.384,0.68 0.853,0.36 1.573,0.573 2.333,0.653 C -2.746,1.306 -1.586,1.079 0,0 m 1.04,0.2 0.133,0.066 0.133,0.067 0.133,0.067 0.12,0.053 0.12,0.053 0.12,0.04 0.12,0.054 0.12,0.04 0.12,0.026 0.107,0.04 0.106,0.027 0.12,0.027 0.107,0.026 0.107,0.013 0.093,0.014 0.107,0.013 0.106,0.014 0.107,0.013 0.386,0 0.107,-0.013 0.093,0 0.093,-0.014 0.067,0 0.067,-0.013 0.066,-0.014 0.08,0 L 4.145,0.786 4.212,0.773 4.278,0.76 4.345,0.746 4.398,0.733 4.478,0.72 4.545,0.706 4.611,0.693 4.678,0.666 4.811,0.64 4.878,0.613 4.945,0.6 5.011,0.573 5.078,0.56 5.144,0.533 5.225,0.506 5.291,0.48 5.358,0.453 5.438,0.426 5.504,0.4 5.584,0.373 5.651,0.346 5.731,0.32 5.798,0.293 5.878,0.253 5.958,0.227 6.038,0.2 6.211,0.133 6.371,0.066 6.544,0.013 6.717,-0.053 6.89,-0.107 7.077,-0.16 7.424,-0.24 7.597,-0.28 7.783,-0.32 7.957,-0.346 8.13,-0.387 8.317,-0.413 8.49,-0.44 8.663,-0.453 8.85,-0.48 9.023,-0.493 9.197,-0.507 9.369,-0.52 l 0.187,0 0.173,-0.013 0.174,0 0.173,-0.013 0.52,0 0.159,0.013 0.36,0 -3.691,-17.673 -0.014,0 -0.319,0.04 -0.307,0.053 -0.293,0.054 -0.28,0.066 -0.267,0.08 -0.266,0.067 -0.254,0.08 -0.253,0.08 -0.24,0.08 -0.227,0.093 -0.226,0.08 -0.227,0.067 -0.226,0.08 -0.227,0.067 -0.213,0.066 -0.226,0.053 -0.227,0.054 -0.226,0.04 -0.227,0.026 -0.227,0.014 -0.24,0 -0.24,-0.014 -0.24,-0.04 -0.253,-0.053 -0.24,-0.067 -0.266,-0.093 -0.253,-0.107 -0.267,-0.133 -0.267,-0.147 0,17.3 0.147,0.107 0.293,0.186 0.147,0.08 0.133,0.08 L 1.04,0.2 Z m -2.066,0 -0.12,0.066 -0.134,0.067 -0.133,0.054 -0.12,0.066 -0.133,0.053 -0.12,0.04 -0.12,0.04 -0.107,0.054 -0.12,0.026 -0.106,0.04 -0.12,0.027 -0.107,0.027 -0.106,0.013 -0.107,0.026 -0.107,0.014 -0.093,0.013 -0.107,0.014 -0.106,0 -0.093,0.013 -0.307,0 -0.093,-0.013 -0.094,0 -0.106,-0.014 -0.067,-0.013 -0.066,0 -0.067,-0.014 -0.067,-0.013 -0.066,0 L -4.185,0.773 -4.252,0.76 -4.318,0.746 -4.385,0.733 -4.452,0.72 -4.518,0.706 -4.585,0.68 -4.652,0.666 -4.718,0.653 -4.785,0.64 -4.851,0.613 -4.918,0.6 -4.985,0.573 -5.051,0.546 -5.131,0.533 -5.198,0.506 -5.265,0.48 -5.345,0.453 -5.411,0.426 -5.478,0.4 -5.558,0.373 -5.624,0.346 -5.704,0.32 -5.784,0.28 -5.851,0.253 -5.931,0.227 -6.011,0.2 -6.184,0.133 -6.358,0.066 -6.531,0 -6.704,-0.053 -6.877,-0.107 -7.051,-0.16 -7.224,-0.2 -7.397,-0.253 -7.57,-0.28 -7.757,-0.32 -7.93,-0.36 -8.104,-0.387 -8.29,-0.413 -8.464,-0.44 -8.637,-0.453 -8.823,-0.48 -8.996,-0.493 -9.17,-0.507 -9.356,-0.52 l -0.173,-0.013 -0.347,0 -0.173,-0.013 -0.693,0 -0.16,0.013 -0.187,0 3.692,-17.686 0.32,0.053 0.306,0.053 0.307,0.054 0.28,0.066 0.266,0.08 0.267,0.067 0.253,0.08 0.24,0.08 0.48,0.16 0.226,0.08 0.454,0.16 0.226,0.067 0.213,0.066 0.227,0.053 0.227,0.054 0.213,0.04 0.24,0.026 0.226,0.014 0.24,0 0.24,-0.014 0.24,-0.04 0.24,-0.053 0.253,-0.067 0.24,-0.093 0.267,-0.107 0.266,-0.133 0.267,-0.147 0,17.3 -0.147,0.093 -0.16,0.107 -0.133,0.08 -0.147,0.093 -0.133,0.08 -0.133,0.067 z"
             style="fill:#ffffff;fill-opacity:1;fill-rule:evenodd;stroke:none"
             id="path228"
             inkscape:connector-curvature="0" /></g><g
           id="g230"
           transform="translate(178.3861,339.3092)"><path
             d="m 0,0 c -0.97,0 -1.455,-0.377 -1.455,-1.114 0,-0.413 0.107,-0.701 0.341,-0.899 0.251,-0.18 0.611,-0.269 1.114,-0.269 L 0,0 Z m 2.75,0 0,-2.282 c 0.503,0 0.863,0.089 1.096,0.269 0.252,0.198 0.36,0.486 0.36,0.899 C 4.206,-0.377 3.72,0 2.75,0 M 0,-5.841 l 0,1.294 -0.467,0 c -1.222,0 -2.157,0.288 -2.821,0.845 -0.648,0.557 -0.971,1.42 -0.971,2.588 0,1.06 0.323,1.887 0.971,2.48 0.646,0.611 1.563,0.899 2.767,0.899 l 0.521,0 0,1.132 2.75,0 0,-1.132 0.521,0 c 1.186,0 2.103,-0.288 2.768,-0.899 0.647,-0.593 0.97,-1.42 0.97,-2.48 0,-1.168 -0.323,-2.031 -0.97,-2.588 -0.665,-0.557 -1.6,-0.845 -2.822,-0.845 l -0.467,0 0,-1.294 -2.75,0 z m -8.914,6.812 0,-2.283 0.413,0 c 0.324,0 0.558,0.09 0.737,0.27 0.198,0.179 0.288,0.467 0.288,0.881 0,0.413 -0.09,0.718 -0.288,0.88 -0.179,0.162 -0.413,0.252 -0.737,0.252 l -0.413,0 z m -2.768,-6.812 0,9.076 3.253,0 c 0.575,0 1.096,-0.072 1.564,-0.252 0.449,-0.161 0.845,-0.395 1.168,-0.7 0.305,-0.306 0.557,-0.665 0.719,-1.079 0.179,-0.413 0.252,-0.88 0.252,-1.365 0,-0.486 -0.055,-0.917 -0.18,-1.33 -0.144,-0.432 -0.342,-0.791 -0.647,-1.097 -0.288,-0.305 -0.665,-0.539 -1.115,-0.719 -0.467,-0.18 -1.042,-0.269 -1.707,-0.269 l -0.539,0 0,-2.265 -2.768,0 z m -9.345,0 0,9.076 7.53,0 0,-9.076 -2.804,0 0,6.812 -1.923,0 0,-6.812 -2.803,0 z m -8.699,0 0,9.076 2.75,0 0,-3.343 0.035,0 1.636,3.343 3.181,0 -2.606,-4.277 2.858,-4.799 -3.361,0 -1.708,3.685 -0.035,0 0,-3.685 -2.75,0 z"
             style="fill:#ffffff;fill-opacity:1;fill-rule:evenodd;stroke:none"
             id="path232"
             inkscape:connector-curvature="0" /></g><g
           id="g234"
           transform="translate(210.8514,384.5866)"
           style="fill:#cc3038;fill-opacity:1"><path
             d="m 0,0 0,-6.288 4.841,0 0,6.288 2.931,0 0,-16.362 -2.931,0 0,6.846 -4.841,0 0,-6.846 -2.95,0 L -2.95,0 0,0 Z"
             style="fill:#cc3038;fill-opacity:1;fill-rule:nonzero;stroke:none"
             id="path236"
             inkscape:connector-curvature="0" /></g><g
           id="g238"
           transform="translate(227.5126,375.1916)"
           style="fill:#cc3038;fill-opacity:1"><path
             d="m 0,0 -0.811,3.472 c -0.231,0.971 -0.462,2.185 -0.656,3.156 l -0.038,0 C -1.697,5.657 -1.891,4.419 -2.103,3.472 L -2.874,0 0,0 Z m -3.299,-2.768 -0.926,-4.199 -3.046,0 3.972,16.362 3.858,0 4.031,-16.362 -3.163,0 -1.003,4.199 -3.723,0 z"
             style="fill:#cc3038;fill-opacity:1;fill-rule:nonzero;stroke:none"
             id="path240"
             inkscape:connector-curvature="0" /></g><g
           id="g242"
           transform="translate(236.7479,376.9397)"
           style="fill:#cc3038;fill-opacity:1"><path
             d="m 0,0 c 0.251,-0.073 0.56,-0.097 0.983,-0.097 1.563,0 2.527,0.995 2.527,2.67 0,1.506 -0.829,2.404 -2.295,2.404 C 0.617,4.977 0.212,4.904 0,4.831 L 0,0 Z m -2.913,7.429 c 0.907,0.194 2.18,0.339 3.974,0.339 1.813,0 3.105,-0.436 3.973,-1.311 C 5.863,5.632 6.423,4.273 6.423,2.67 6.423,1.068 5.998,-0.292 5.227,-1.214 4.224,-2.403 2.738,-2.938 1.003,-2.938 0.617,-2.938 0.27,-2.913 0,-2.865 l 0,-5.85 -2.913,0 0,16.144 z"
             style="fill:#cc3038;fill-opacity:1;fill-rule:nonzero;stroke:none"
             id="path244"
             inkscape:connector-curvature="0" /></g><g
           id="g246"
           transform="translate(247.4872,376.3571)"
           style="fill:#cc3038;fill-opacity:1"><path
             d="m 0,0 c 0,-3.204 1.195,-5.462 3.163,-5.462 1.986,0 3.124,2.379 3.124,5.559 0,2.938 -1.118,5.462 -3.144,5.462 C 1.157,5.559 0,3.18 0,0 m 9.393,0.218 c 0,-5.365 -2.584,-8.618 -6.384,-8.618 -3.858,0 -6.114,3.666 -6.114,8.327 0,4.904 2.488,8.57 6.326,8.57 3.992,0 6.172,-3.763 6.172,-8.279"
             style="fill:#cc3038;fill-opacity:1;fill-rule:nonzero;stroke:none"
             id="path248"
             inkscape:connector-curvature="0" /></g><g
           id="g250"
           transform="translate(262.8563,379.3918)"
           style="fill:#cc3038;fill-opacity:1"><path
             d="m 0,0 c 0,-1.894 -0.193,-3.739 -0.579,-5.39 -0.232,-0.995 -0.56,-1.99 -0.906,-2.767 l 4.32,0 0,10.342 L 0,2.185 0,0 Z m 5.786,5.195 0,-13.449 1.292,-0.098 -0.135,-6.967 -2.237,0 -0.154,4.151 -7.6,0 -0.154,-4.151 -2.238,0 -0.115,6.967 1.08,0.098 c 0.521,1.165 0.946,2.355 1.235,3.641 0.366,1.651 0.52,3.423 0.52,5.438 l 0,4.37 8.506,0 z"
             style="fill:#cc3038;fill-opacity:1;fill-rule:nonzero;stroke:none"
             id="path252"
             inkscape:connector-curvature="0" /></g><g
           id="g254"
           transform="translate(274.5399,384.5866)"
           style="fill:#cc3038;fill-opacity:1"><path
             d="m 0,0 0,-6.288 4.842,0 0,6.288 2.931,0 0,-16.362 -2.931,0 0,6.846 -4.842,0 0,-6.846 -2.951,0 L -2.951,0 0,0 Z"
             style="fill:#cc3038;fill-opacity:1;fill-rule:nonzero;stroke:none"
             id="path256"
             inkscape:connector-curvature="0" /></g><g
           id="g258"
           transform="translate(291.2001,375.1916)"
           style="fill:#cc3038;fill-opacity:1"><path
             d="m 0,0 -0.81,3.472 c -0.231,0.971 -0.463,2.185 -0.655,3.156 l -0.039,0 C -1.697,5.657 -1.89,4.419 -2.102,3.472 L -2.873,0 0,0 Z m -3.298,-2.768 -0.926,-4.199 -3.047,0 3.973,16.362 3.857,0 4.032,-16.362 -3.163,0 -1.003,4.199 -3.723,0 z"
             style="fill:#cc3038;fill-opacity:1;fill-rule:nonzero;stroke:none"
             id="path260"
             inkscape:connector-curvature="0" /></g><g
           id="g262"
           transform="translate(303.6376,381.8191)"
           style="fill:#cc3038;fill-opacity:1"><path
             d="m 0,0 c -0.212,0.049 -0.598,0.146 -1.195,0.146 -1.274,0 -2.295,-0.68 -2.295,-2.355 0,-1.505 1.098,-2.306 2.429,-2.306 0.386,0 0.791,0.024 1.061,0.073 L 0,0 Z m -7.233,-13.595 c 0.27,0.534 0.483,1.165 0.657,1.846 0.52,1.869 0.829,3.787 1.812,4.976 0.289,0.364 0.675,0.631 1.08,0.85 l 0,0.072 c -1.446,0.34 -2.738,1.603 -2.738,3.982 0,1.529 0.539,2.695 1.35,3.472 1.003,0.971 2.584,1.286 4.243,1.286 1.427,0 2.797,-0.145 3.741,-0.34 l 0,-16.144 -2.912,0 0,6.433 -0.713,0 c -0.579,0 -1.042,-0.218 -1.389,-0.63 -0.83,-0.996 -1.158,-3.084 -1.543,-4.419 -0.135,-0.485 -0.232,-0.874 -0.463,-1.384 l -3.125,0 z"
             style="fill:#cc3038;fill-opacity:1;fill-rule:nonzero;stroke:none"
             id="path264"
             inkscape:connector-curvature="0" /></g><g
           id="g266"
           transform="translate(323.4989,384.5866)"
           style="fill:#cc3038;fill-opacity:1"><path
             d="m 0,0 0,-16.362 -2.951,0 0,13.328 -4.61,0 0,-13.328 -2.951,0 0,16.362 L 0,0 Z"
             style="fill:#cc3038;fill-opacity:1;fill-rule:nonzero;stroke:none"
             id="path268"
             inkscape:connector-curvature="0" /></g><g
           id="g270"
           transform="translate(328.954,376.9397)"
           style="fill:#cc3038;fill-opacity:1"><path
             d="m 0,0 c 0.25,-0.073 0.559,-0.097 0.983,-0.097 1.563,0 2.527,0.995 2.527,2.67 0,1.506 -0.829,2.404 -2.295,2.404 C 0.617,4.977 0.212,4.904 0,4.831 L 0,0 Z m -2.912,7.429 c 0.906,0.194 2.179,0.339 3.973,0.339 1.812,0 3.105,-0.436 3.972,-1.311 C 5.863,5.632 6.422,4.273 6.422,2.67 6.422,1.068 5.998,-0.292 5.227,-1.214 4.224,-2.403 2.738,-2.938 1.003,-2.938 0.617,-2.938 0.27,-2.913 0,-2.865 l 0,-5.85 -2.912,0 0,16.144 z"
             style="fill:#cc3038;fill-opacity:1;fill-rule:nonzero;stroke:none"
             id="path272"
             inkscape:connector-curvature="0" /></g><g
           id="g274"
           transform="translate(339.9442,384.5866)"
           style="fill:#cc3038;fill-opacity:1"><path
             d="m 0,0 0,-4.855 c 0,-2.622 -0.039,-5.22 -0.154,-7.405 l 0.076,0 c 0.676,1.918 1.543,4.079 2.314,5.827 L 5.033,0 l 3.009,0 0,-16.362 -2.7,0 0,4.831 c 0,2.525 0.039,4.758 0.213,6.894 l -0.059,0 C 4.898,-6.579 4.069,-8.739 3.298,-10.463 l -2.643,-5.899 -3.356,0 L -2.701,0 0,0 Z"
             style="fill:#cc3038;fill-opacity:1;fill-rule:nonzero;stroke:none"
             id="path276"
             inkscape:connector-curvature="0" /></g><g
           id="g278"
           transform="translate(355.1961,387.1843)"
           style="fill:#cc3038;fill-opacity:1"><path
             d="M 0,0 C 0,0.947 0.579,1.675 1.331,1.675 2.064,1.675 2.623,0.947 2.623,0 2.623,-0.898 2.064,-1.651 1.331,-1.651 0.56,-1.651 0,-0.898 0,0 m -4.012,0 c 0,0.947 0.598,1.675 1.351,1.675 0.714,0 1.253,-0.728 1.253,-1.675 0,-0.898 -0.539,-1.651 -1.253,-1.651 -0.772,0 -1.351,0.753 -1.351,1.651 m 7.098,-12.041 -4.783,0 0,-3.884 5.343,0 0,-3.035 -8.294,0 0,16.362 8.023,0 0,-3.034 -5.072,0 0,-3.399 4.783,0 0,-3.01 z"
             style="fill:#cc3038;fill-opacity:1;fill-rule:nonzero;stroke:none"
             id="path280"
             inkscape:connector-curvature="0" /></g><g
           id="g282"
           transform="translate(371.8387,374.4875)"
           style="fill:#cc3038;fill-opacity:1"><path
             d="m 0,0 c -0.058,1.967 -0.115,4.346 -0.115,6.725 l -0.059,0 C -0.578,4.637 -1.119,2.307 -1.62,0.389 l -1.581,-6.385 -2.296,0 -1.389,6.336 c -0.423,1.918 -0.868,4.248 -1.177,6.385 l -0.038,0 C -8.178,4.516 -8.235,1.991 -8.332,-0.048 l -0.232,-6.215 -2.719,0 0.83,16.362 3.915,0 1.272,-5.462 c 0.406,-1.893 0.811,-3.933 1.1,-5.85 l 0.058,0 c 0.366,1.893 0.81,4.054 1.234,5.874 l 1.389,5.438 3.839,0 0.712,-16.362 -2.873,0 L 0,0 Z"
             style="fill:#cc3038;fill-opacity:1;fill-rule:nonzero;stroke:none"
             id="path284"
             inkscape:connector-curvature="0" /></g><g
           id="g286"
           transform="translate(380.1083,384.5866)"
           style="fill:#cc3038;fill-opacity:1"><path
             d="m 0,0 0,-6.288 4.842,0 0,6.288 2.931,0 0,-16.362 -2.931,0 0,6.846 -4.842,0 0,-6.846 -2.951,0 L -2.951,0 0,0 Z"
             style="fill:#cc3038;fill-opacity:1;fill-rule:nonzero;stroke:none"
             id="path288"
             inkscape:connector-curvature="0" /></g><g
           id="g290"
           transform="translate(396.7684,375.1916)"
           style="fill:#cc3038;fill-opacity:1"><path
             d="m 0,0 -0.81,3.472 c -0.231,0.971 -0.463,2.185 -0.655,3.156 l -0.039,0 C -1.697,5.657 -1.89,4.419 -2.102,3.472 L -2.873,0 0,0 Z m -3.298,-2.768 -0.926,-4.199 -3.047,0 3.973,16.362 3.858,0 4.031,-16.362 -3.163,0 -1.003,4.199 -3.723,0 z"
             style="fill:#cc3038;fill-opacity:1;fill-rule:nonzero;stroke:none"
             id="path292"
             inkscape:connector-curvature="0" /></g><g
           id="g294"
           transform="translate(409.2049,381.8191)"
           style="fill:#cc3038;fill-opacity:1"><path
             d="m 0,0 c -0.212,0.049 -0.598,0.146 -1.195,0.146 -1.274,0 -2.296,-0.68 -2.296,-2.355 0,-1.505 1.099,-2.306 2.43,-2.306 0.386,0 0.791,0.024 1.061,0.073 L 0,0 Z m -7.232,-13.595 c 0.27,0.534 0.482,1.165 0.655,1.846 0.521,1.869 0.83,3.787 1.813,4.976 0.289,0.364 0.675,0.631 1.08,0.85 l 0,0.072 c -1.446,0.34 -2.739,1.603 -2.739,3.982 0,1.529 0.541,2.695 1.351,3.472 1.003,0.971 2.585,1.286 4.243,1.286 1.428,0 2.797,-0.145 3.742,-0.34 l 0,-16.144 -2.913,0 0,6.433 -0.714,0 c -0.578,0 -1.041,-0.218 -1.389,-0.63 -0.829,-0.996 -1.156,-3.084 -1.543,-4.419 -0.134,-0.485 -0.23,-0.874 -0.462,-1.384 l -3.124,0 z"
             style="fill:#cc3038;fill-opacity:1;fill-rule:nonzero;stroke:none"
             id="path296"
             inkscape:connector-curvature="0" /></g><g
           id="g298"
           transform="translate(214.8153,344.0027)"
           style="fill:#cc3038;fill-opacity:1"><path
             d="m 0,0 c 0,-6.445 3.016,-10.986 7.976,-10.986 5.008,0 7.878,4.785 7.878,11.181 0,5.909 -2.821,10.987 -7.927,10.987 C 2.918,11.182 0,6.396 0,0 m 23.683,0.439 c 0,-10.791 -6.517,-17.334 -16.097,-17.334 -9.726,0 -15.415,7.374 -15.415,16.749 0,9.863 6.273,17.236 15.95,17.236 10.066,0 15.562,-7.569 15.562,-16.651"
             style="fill:#cc3038;fill-opacity:1;fill-rule:nonzero;stroke:none"
             id="path300"
             inkscape:connector-curvature="0" /></g><g
           id="g302"
           transform="translate(250.6991,333.0652)"
           style="fill:#cc3038;fill-opacity:1"><path
             d="m 0,0 c 0.826,-0.146 1.848,-0.195 2.869,-0.195 1.799,0 3.599,0.586 4.815,1.709 0.972,0.879 1.604,2.197 1.604,3.808 0,1.66 -0.681,2.881 -1.751,3.711 -1.312,1.026 -3.16,1.465 -4.911,1.465 C 1.799,10.498 0.924,10.449 0,10.303 L 0,0 Z m 14.443,27.49 0,-6.054 -14.394,0 0,-5.665 c 1.118,0.147 2.675,0.245 3.987,0.245 3.307,0 6.76,-0.83 9.239,-2.686 2.286,-1.66 3.794,-4.248 3.794,-7.861 0,-3.223 -1.216,-5.713 -3.112,-7.422 -3.161,-2.832 -8.316,-3.809 -13.325,-3.809 -3.647,0 -6.321,0.244 -7.975,0.489 l 0,32.763 21.786,0 z"
             style="fill:#cc3038;fill-opacity:1;fill-rule:nonzero;stroke:none"
             id="path304"
             inkscape:connector-curvature="0" /></g><g
           id="g306"
           transform="translate(276.8573,360.5554)"
           style="fill:#cc3038;fill-opacity:1"><path
             d="m 0,0 4.767,-11.572 c 0.875,-2.344 1.555,-4.297 2.285,-6.299 l 0.145,0 c 0.439,1.416 0.973,3.613 1.8,6.396 L 12.547,0 20.328,0 14.2,-15.967 c -1.994,-5.127 -4.036,-10.107 -6.468,-13.135 -2.139,-2.685 -4.863,-4.345 -8.704,-4.345 -1.702,0 -2.723,0.195 -3.647,0.537 l 0.535,5.957 c 0.583,-0.147 1.361,-0.244 2.431,-0.244 2.286,0 3.841,1.562 4.425,3.076 0.292,0.537 0.146,0.976 -0.097,1.514 L -8.364,0 0,0 Z"
             style="fill:#cc3038;fill-opacity:1;fill-rule:nonzero;stroke:none"
             id="path308"
             inkscape:connector-curvature="0" /></g><g
           id="g310"
           transform="translate(317.993,327.6452)"
           style="fill:#cc3038;fill-opacity:1"><path
             d="m 0,0 -2.966,5.957 c -1.216,2.295 -1.994,4.004 -2.918,5.908 l -0.097,0 C -6.662,9.961 -7.488,8.252 -8.51,5.957 L -11.233,0 l -8.461,0 9.482,16.65 -9.142,16.26 8.51,0 2.869,-6.006 c 0.973,-2.002 1.703,-3.613 2.48,-5.468 l 0.098,0 c 0.778,2.099 1.41,3.564 2.237,5.468 l 2.771,6.006 8.462,0 L -1.167,16.846 8.56,0 0,0 Z"
             style="fill:#cc3038;fill-opacity:1;fill-rule:nonzero;stroke:none"
             id="path312"
             inkscape:connector-curvature="0" /></g><g
           id="g314"
           transform="translate(334.9608,344.0027)"
           style="fill:#cc3038;fill-opacity:1"><path
             d="m 0,0 c 0,-6.445 3.016,-10.986 7.976,-10.986 5.008,0 7.878,4.785 7.878,11.181 0,5.909 -2.821,10.987 -7.927,10.987 C 2.918,11.182 0,6.396 0,0 m 23.683,0.439 c 0,-10.791 -6.517,-17.334 -16.096,-17.334 -9.727,0 -15.416,7.374 -15.416,16.749 0,9.863 6.273,17.236 15.95,17.236 10.066,0 15.562,-7.569 15.562,-16.651"
             style="fill:#cc3038;fill-opacity:1;fill-rule:nonzero;stroke:none"
             id="path316"
             inkscape:connector-curvature="0" /></g><g
           id="g318"
           transform="translate(370.8446,332.9187)"
           style="fill:#cc3038;fill-opacity:1"><path
             d="m 0,0 c 0.729,-0.098 1.604,-0.098 2.869,-0.098 3.356,0 6.322,1.27 6.322,4.737 0,3.32 -2.966,4.638 -6.663,4.638 L 0,9.277 0,0 Z m 0,14.6 2.432,0 c 3.89,0 5.981,1.611 5.981,4.052 0,2.49 -1.896,3.809 -5.252,3.809 C 1.556,22.461 0.632,22.363 0,22.266 L 0,14.6 Z m -7.343,12.597 c 1.945,0.391 5.884,0.684 9.58,0.684 4.523,0 7.294,-0.44 9.677,-1.856 2.286,-1.22 3.939,-3.466 3.939,-6.445 0,-2.93 -1.702,-5.664 -5.398,-7.031 l 0,-0.098 c 3.745,-1.025 6.517,-3.857 6.517,-8.105 0,-2.979 -1.362,-5.323 -3.405,-6.983 -2.382,-1.904 -6.37,-2.978 -12.886,-2.978 -3.648,0 -6.371,0.244 -8.024,0.488 l 0,32.324 z"
             style="fill:#cc3038;fill-opacity:1;fill-rule:nonzero;stroke:none"
             id="path320"
             inkscape:connector-curvature="0" /></g><g
           id="g322"
           transform="translate(408.6737,341.6589)"
           style="fill:#cc3038;fill-opacity:1"><path
             d="m 0,0 -2.042,6.982 c -0.584,1.954 -1.168,4.395 -1.654,6.348 l -0.097,0 C -4.279,11.377 -4.766,8.887 -5.301,6.982 L -7.246,0 0,0 Z m -8.315,-5.566 -2.335,-8.448 -7.683,0 10.018,32.91 9.725,0 10.164,-32.91 -7.975,0 -2.53,8.448 -9.384,0 z"
             style="fill:#cc3038;fill-opacity:1;fill-rule:nonzero;stroke:none"
             id="path324"
             inkscape:connector-curvature="0" /></g></g></g></g></svg>